<svg xmlns="http://www.w3.org/2000/svg" version="1.1" xmlns:xlink="http://www.w3.org/1999/xlink" width="50" height="50"><svg width="50" height="50" viewBox="0 0 50 50" fill="none" xmlns="http://www.w3.org/2000/svg">
<path d="M49.4095 22.4184C49.4095 22.4184 49.4567 14.3002 41.6546 6.71019C39.088 4.14551 33.0141 -0.0019633 25.2277 6.97273e-07C23.8943 6.97273e-07 21.4318 0.190487 21.3846 0.184596C9.78659 1.75954 4.52372 10.1704 4.52372 10.1704C7.99959 5.70278 15.3991 4.33404 15.3991 4.33404C30.9757 1.91468 37.3068 13.2712 37.3068 13.2712C43.9463 23.3257 39.6968 32.0742 39.6968 32.0742C36.3446 24.8437 29.4871 24.0071 29.4871 24.0071C30.6575 23.7007 31.5039 22.6678 31.5039 22.6678C29.6737 23.1587 25.2356 22.6717 25.2356 22.6717C18.3467 22.5166 17.8204 26.2399 17.8204 26.2399C14.5311 29.8709 17.4787 31.7011 17.4787 31.7011C17.0133 28.887 20.4263 28.7849 20.4263 28.7849C27.2524 29.0324 26.6947 35.611 26.6947 35.611C25.1433 43.8038 15.1516 40.9485 15.1516 40.9485C6.01618 37.7299 7.02163 27.3573 7.02163 27.3573C7.70502 12.8981 21.0115 11.8062 21.0115 11.8062C35.0996 10.8125 37.8017 22.3929 37.8017 22.3929C35.1821 9.33966 25.5125 6.64539 19.8018 6.22318C19.7979 6.22514 18.4429 6.06607 17.1311 6.17015C17.0977 6.17015 17.0624 6.17212 17.029 6.17409C17.029 6.17409 12.854 6.48436 9.37619 8.80357C9.37229 8.80553 9.36829 8.80946 9.36439 8.81142C8.37467 9.41426 7.51454 10.0231 6.7683 10.6181C6.7683 10.6181 5.59593 11.5332 4.12311 13.1553C3.69108 13.662 3.35135 14.1235 3.08624 14.5221C3.08624 14.5221 1.71357 16.2757 0.794528 19.5493C0.350708 20.869 0.136658 22.3988 0.0502582 23.848C0.0384782 24.0189 0.0306183 24.176 0.0266903 24.3252C-0.0243667 25.5349 0.00508934 26.6641 0.0541883 27.536C0.0541883 27.5419 0.552978 31.0276 1.19513 32.8794C1.92173 34.7587 3.13534 36.9738 5.15409 38.9474C20.1376 51.2426 29.0335 41.7929 29.0335 41.7929C33.9979 36.0843 26.7575 28.2233 26.7575 28.2233C32.3837 31.2436 32.3012 37.0779 32.3012 37.0779C32.7038 43.3914 26.675 45.6831 26.675 45.6831C15.7506 50.1448 6.58764 42.4979 6.58764 42.4979C10.0183 46.178 14.4879 48.1496 18.0855 49.2002C26.2901 51.5587 36.488 48.4246 41.4622 43.417C43.7127 41.137 45.2464 38.9356 45.2464 38.9356C46.2597 37.4589 46.7879 36.4102 46.7879 36.4102C50.5171 29.8081 49.4095 22.4164 49.4095 22.4164V22.4184ZM22.7416 25.2541C22.6866 25.3896 21.7774 26.128 20.0002 25.8746C20.0002 25.8746 21.8186 24.932 22.3508 24.3429C22.5531 24.119 22.8594 24.9674 22.7436 25.2541H22.7416Z" fill="url(#paint0_linear_155_3)"></path>
<defs>
<linearGradient id="SvgjsLinearGradient1001" x1="0.293759" y1="6.35671" x2="51.0002" y2="45.3611" gradientUnits="userSpaceOnUse">
<stop stop-color="#92643D"></stop>
<stop offset="0.05" stop-color="#986A42"></stop>
<stop offset="0.13" stop-color="#A97D51"></stop>
<stop offset="0.23" stop-color="#C59C6A"></stop>
<stop offset="0.33" stop-color="#EEC98D"></stop>
<stop offset="0.52" stop-color="#FFDFB2"></stop>
<stop offset="0.66" stop-color="#F1CA90"></stop>
<stop offset="1" stop-color="#92643D"></stop>
</linearGradient>
</defs>
</svg><style>@media (prefers-color-scheme: light) { :root { filter: none; } }
@media (prefers-color-scheme: dark) { :root { filter: none; } }
</style></svg>