<svg width="188" height="51" viewBox="0 0 188 51" fill="none" xmlns="http://www.w3.org/2000/svg">
<path d="M50.3736 23.1083C50.3736 23.1083 50.4208 14.9901 42.6187 7.40013C40.0521 4.83545 33.9782 0.687978 26.1918 0.689942C24.8584 0.689942 22.3959 0.880428 22.3487 0.874537C10.7507 2.44948 5.48783 10.8603 5.48783 10.8603C8.9637 6.39272 16.3632 5.02398 16.3632 5.02398C31.9398 2.60462 38.2709 13.9611 38.2709 13.9611C44.9104 24.0156 40.6609 32.7641 40.6609 32.7641C37.3087 25.5336 30.4512 24.697 30.4512 24.697C31.6216 24.3906 32.468 23.3577 32.468 23.3577C30.6378 23.8486 26.1997 23.3616 26.1997 23.3616C19.3108 23.2065 18.7845 26.9298 18.7845 26.9298C15.4952 30.5608 18.4428 32.391 18.4428 32.391C17.9774 29.5769 21.3904 29.4748 21.3904 29.4748C28.2165 29.7223 27.6588 36.3009 27.6588 36.3009C26.1074 44.4937 16.1157 41.6384 16.1157 41.6384C6.98029 38.4198 7.98574 28.0472 7.98574 28.0472C8.66913 13.588 21.9756 12.4961 21.9756 12.4961C36.0637 11.5024 38.7658 23.0828 38.7658 23.0828C36.1462 10.0296 26.4766 7.33533 20.7659 6.91312C20.762 6.91508 19.407 6.75601 18.0952 6.86009C18.0618 6.86009 18.0265 6.86206 17.9931 6.86403C17.9931 6.86403 13.8181 7.1743 10.3403 9.49351C10.3364 9.49547 10.3324 9.4994 10.3285 9.50136C9.33878 10.1042 8.47865 10.713 7.73241 11.308C7.73241 11.308 6.56004 12.2231 5.08722 13.8452C4.65519 14.3519 4.31546 14.8134 4.05035 15.212C4.05035 15.212 2.67768 16.9656 1.75864 20.2392C1.31482 21.5589 1.10077 23.0887 1.01437 24.5379C1.00259 24.7088 0.99473 24.8659 0.990802 25.0151C0.939745 26.2248 0.969201 27.354 1.0183 28.2259C1.0183 28.2318 1.51709 31.7175 2.15924 33.5693C2.88584 35.4486 4.09945 37.6637 6.1182 39.6373C21.1017 51.9325 29.9976 42.4828 29.9976 42.4828C34.962 36.7742 27.7216 28.9132 27.7216 28.9132C33.3478 31.9335 33.2653 37.7678 33.2653 37.7678C33.6679 44.0813 27.6391 46.373 27.6391 46.373C16.7147 50.8347 7.55175 43.1878 7.55175 43.1878C10.9824 46.8679 15.452 48.8395 19.0496 49.8901C27.2542 52.2486 37.4521 49.1145 42.4263 44.1069C44.6768 41.8269 46.2105 39.6255 46.2105 39.6255C47.2238 38.1488 47.752 37.1001 47.752 37.1001C51.4812 30.498 50.3736 23.1063 50.3736 23.1063V23.1083ZM23.7057 25.944C23.6507 26.0795 22.7415 26.8179 20.9643 26.5645C20.9643 26.5645 22.7827 25.6219 23.3149 25.0328C23.5172 24.8089 23.8235 25.6573 23.7077 25.944H23.7057Z" fill="url(#paint0_linear_6_4)"/>
<path d="M30.4512 24.697L30.7045 24.6597C30.622 24.6773 30.5395 24.6891 30.4512 24.697Z" fill="url(#paint1_linear_6_4)"/>
<path d="M27.5999 25.5454C29.0589 25.3019 30.4512 24.697 30.4512 24.697C30.4512 24.697 37.3087 25.5356 40.6609 32.7642C35.8241 26.4153 27.5999 25.5454 27.5999 25.5454Z" fill="url(#paint2_linear_6_4)"/>
<path d="M17.2939 44.4369C27.7353 47.2038 33.2633 39.172 29.862 31.8962C29.862 31.8962 29.866 31.9002 29.8679 31.9041C31.5096 34.7162 33.0257 39.0012 29.9956 42.4868C29.9956 42.4868 21.0997 51.9345 6.11618 39.6413C4.09743 37.6678 2.88382 35.4526 2.15723 33.5733C2.15723 33.5733 3.48081 36.7016 6.56196 39.2918C9.0854 41.4146 12.8303 43.2547 17.2959 44.4369H17.2939Z" fill="url(#paint3_linear_6_4)"/>
<path d="M27.6587 36.3009C27.6587 36.3009 28.2165 29.7223 21.3904 29.4748C21.3904 29.4748 17.9774 29.5789 18.4428 32.391C18.4428 32.391 17.6553 30.9889 18.6726 29.4238C19.7978 27.6917 24.8565 27.1753 27.3779 30.0011C29.8994 32.827 29.3888 40.2363 23.4465 41.5442C25.3808 40.8274 27.0912 39.3094 27.6607 36.3009H27.6587Z" fill="url(#paint4_linear_6_4)"/>
<path d="M40.661 32.7641C40.661 32.7641 44.9125 24.0136 38.2711 13.9611C38.2711 13.9611 31.9418 2.6046 16.3633 5.02396L16.4163 5.00629C16.4163 5.00629 16.5714 4.96504 16.5734 4.96504C21.8952 3.85159 31.9163 3.48829 38.6952 12.5138C46.8547 23.3773 40.659 32.7641 40.659 32.7641H40.661Z" fill="url(#paint5_linear_6_4)"/>
<path d="M6.56388 28.0041C6.74651 16.0251 17.7102 10.9959 24.9899 12.4766C24.9919 12.4766 24.9938 12.4766 24.9958 12.4766C24.0532 12.4176 23.0477 12.4196 21.9775 12.4942C21.9775 12.4942 8.66904 13.5861 7.98761 28.0453C7.98761 28.0453 7.00377 38.2235 15.8662 41.5423C13.1778 40.6939 6.41856 37.603 6.56585 28.0001L6.56388 28.0041Z" fill="url(#paint6_linear_6_4)"/>
<path d="M15.9468 47.2056C19.2616 48.0107 23.3109 48.1442 27.639 46.3749C27.639 46.3749 33.6678 44.0832 33.2652 37.7697C33.2652 37.7697 33.3418 32.2613 28.181 29.1782C28.0239 29.0682 27.8708 28.9779 27.7215 28.915C27.7215 28.915 38.1707 33.2923 33.7699 43.1072C31.058 49.1536 21.4728 48.7059 15.9487 47.2056H15.9468Z" fill="url(#paint7_linear_6_4)"/>
<path d="M69.8936 15.0137C70.0153 14.9862 70.1174 14.8919 70.1979 14.7289C70.2804 14.5679 70.3197 14.3499 70.3197 14.0809C70.3197 13.8119 70.2726 13.5271 70.1783 13.2286L69.1238 9.88236H64.4402C64.2791 10.3831 64.1495 10.8858 64.0553 11.3925C63.961 11.8992 63.9139 12.3822 63.9139 12.8418C63.9139 13.3425 63.9767 13.7844 64.1063 14.1712C64.234 14.5561 64.4539 14.8369 64.7662 15.0117H61.198C61.414 14.9587 61.6241 14.8271 61.8264 14.617C62.0306 14.4069 62.2388 14.1005 62.4548 13.694C62.6708 13.2875 62.9006 12.7711 63.1441 12.1427C63.3876 11.5143 63.6586 10.7602 63.9551 9.88236L66.5512 1.93303C66.402 1.62276 66.241 1.36943 66.0642 1.17306C65.8875 0.976679 65.7264 0.858855 65.5772 0.81958H68.3756L72.2069 13.2306C72.3699 13.7451 72.5682 14.1575 72.8058 14.4678C73.0415 14.778 73.2614 14.9607 73.4656 15.0157H69.8975L69.8936 15.0137ZM69.002 9.49747L66.8124 2.60268L64.56 9.49747H69.002Z" fill="#92643D"/>
<path d="M84.7984 0.819593C84.5137 0.980622 84.278 1.25162 84.0895 1.63063C83.901 2.00964 83.7478 2.43774 83.6339 2.91886C83.518 3.39802 83.4414 3.90467 83.4002 4.43881C83.359 4.97296 83.3393 5.47765 83.3393 5.94895V11.1195C83.3393 11.7676 83.2077 12.3351 82.9446 12.8221C82.6815 13.3091 82.3339 13.7156 81.8999 14.0397C81.4679 14.3637 80.973 14.6072 80.4192 14.7702C79.8654 14.9332 79.2959 15.0137 78.7147 15.0137C78.1334 15.0137 77.5658 14.9332 77.0101 14.7702C76.4544 14.6072 75.9615 14.3637 75.5294 14.0397C75.0974 13.7156 74.7459 13.3091 74.4749 12.8221C74.2039 12.3351 74.0703 11.7676 74.0703 11.1195V2.86583C74.0703 2.27081 73.9879 1.79362 73.8268 1.43621C73.6638 1.07881 73.4891 0.872612 73.2986 0.817627H76.745C76.5565 0.870649 76.3797 1.07881 76.2187 1.43621C76.0557 1.79558 75.9752 2.27081 75.9752 2.86583V11.1195C75.9752 11.6596 76.0734 12.1329 76.2698 12.5394C76.4661 12.9439 76.7254 13.2817 77.0513 13.5527C77.3754 13.8237 77.7445 14.0259 78.1569 14.1614C78.5693 14.2969 78.9915 14.3637 79.4236 14.3637C79.8556 14.3637 80.2817 14.2969 80.7 14.1614C81.1183 14.0259 81.4934 13.8237 81.8253 13.5527C82.1571 13.2817 82.4242 12.9439 82.6265 12.5394C82.8287 12.1329 82.9309 11.6615 82.9309 11.1195V5.94895C82.9309 5.4207 82.9171 4.88655 82.8896 4.34652C82.8621 3.80648 82.8013 3.30179 82.707 2.83638C82.6127 2.37097 82.4713 1.95858 82.2809 1.59921C82.0923 1.23984 81.8272 0.98062 81.4895 0.817627H84.7945L84.7984 0.819593Z" fill="#92643D"/>
<path d="M97.2703 4.00284C97.176 3.62384 97.0209 3.26643 96.8049 2.92866C96.5889 2.5909 96.3218 2.29241 96.0037 2.03515C95.6855 1.7779 95.3144 1.57563 94.8883 1.42835C94.4621 1.2791 93.9928 1.20448 93.4783 1.20448H92.2607V12.9655C92.2607 13.5605 92.3393 14.0377 92.4944 14.3951C92.6496 14.7525 92.8224 14.9587 93.0109 15.0137H89.5645C89.753 14.9607 89.9297 14.7525 90.0908 14.3951C90.2538 14.0357 90.3343 13.5605 90.3343 12.9655V1.20448H89.1167C88.6022 1.20448 88.1329 1.2791 87.7087 1.42835C87.2826 1.5776 86.9114 1.77986 86.5933 2.03515C86.2752 2.29241 86.012 2.58893 85.8019 2.92866C85.5918 3.26643 85.4327 3.6258 85.3247 4.00284L85.5879 1.20448V0.81958H97.0052V1.20448L97.2683 4.00284H97.2703Z" fill="#92643D"/>
<path d="M64.7445 30.6728C64.7445 31.2678 64.825 31.745 64.988 32.1024C65.149 32.4598 65.3258 32.666 65.5143 32.721H62.0679C62.2564 32.6679 62.4331 32.4598 62.5961 32.1024C62.7572 31.743 62.8396 31.2678 62.8396 30.6728V20.5751C62.8396 19.98 62.7572 19.5029 62.5961 19.1454C62.4331 18.788 62.2584 18.5818 62.0679 18.5269H65.5143C65.3258 18.5799 65.149 18.788 64.988 19.1454C64.825 19.5048 64.7445 19.98 64.7445 20.5751V30.6728Z" fill="#92643D"/>
<path d="M76.971 31.5054C77.187 31.7901 77.4168 32.0493 77.6603 32.287C77.9038 32.5246 78.1257 32.6699 78.3299 32.7229H75.4707L68.6368 21.6099V27.5916C68.6368 28.1179 68.6505 28.654 68.676 29.194C68.7035 29.736 68.7644 30.2387 68.8587 30.7042C68.9529 31.1696 69.0943 31.5839 69.2848 31.9413C69.4733 32.3007 69.7384 32.5599 70.0762 32.7229H66.7712C67.0559 32.5599 67.2916 32.2909 67.4801 31.9119C67.6686 31.5329 67.8218 31.1048 67.9357 30.6236C68.0496 30.1445 68.1281 29.6378 68.1694 29.1037C68.2087 28.5695 68.2303 28.0668 68.2303 27.5935V20.9423L67.8454 20.3139C67.5626 19.8681 67.3112 19.4714 67.0952 19.1277C66.8792 18.7841 66.6691 18.5838 66.4668 18.5308H68.9411L76.5665 30.9005V23.6621C76.5665 23.1338 76.5527 22.5997 76.5272 22.0597C76.4997 21.5196 76.4349 21.0149 76.3347 20.5495C76.2346 20.0841 76.0873 19.6717 75.8988 19.3123C75.7102 18.953 75.4451 18.6938 75.1074 18.5308H78.4124C78.1276 18.6918 77.8959 18.9628 77.7133 19.3418C77.5307 19.7208 77.3814 20.1489 77.2675 20.63C77.1517 21.1092 77.0751 21.6158 77.0338 22.15C76.9945 22.6841 76.9729 23.1888 76.9729 23.6601V31.5073L76.971 31.5054Z" fill="#92643D"/>
<path d="M91.4103 18.5269C91.0863 18.6074 90.7839 18.8411 90.507 19.226C90.2301 19.6109 89.9768 20.0606 89.747 20.5751C89.5173 21.0896 89.3072 21.6237 89.1186 22.1775C88.9301 22.7313 88.775 23.2262 88.6532 23.6582L85.9354 32.7229H83.9677L80.3583 20.3119C80.209 19.7974 80.0166 19.385 79.7809 19.0747C79.5433 18.7645 79.3253 18.5818 79.1211 18.5269H82.6303C82.5086 18.5543 82.4065 18.6486 82.326 18.8096C82.2454 18.9726 82.2042 19.1886 82.2042 19.4596C82.2042 19.7306 82.2513 20.0134 82.3456 20.3119L85.7331 31.9924L88.1662 23.6582C88.3154 23.1437 88.4372 22.6311 88.5315 22.1166C88.6257 21.6021 88.6729 21.1171 88.6729 20.6556C88.6729 20.1686 88.6081 19.7365 88.4804 19.3575C88.3528 18.9785 88.1387 18.7016 87.8422 18.5269H91.4103Z" fill="#92643D"/>
<path d="M97.716 32.3361C98.2305 32.3361 98.6959 32.2614 99.1142 32.1122C99.5325 31.963 99.9017 31.7607 100.22 31.5034C100.538 31.2462 100.805 30.9496 101.021 30.6119C101.237 30.2741 101.392 29.9147 101.486 29.5377L101.243 32.3361V32.721H92.137C92.3255 32.6679 92.5022 32.4598 92.6652 32.1024C92.8262 31.743 92.9087 31.2678 92.9087 30.6728V20.5751C92.9087 19.98 92.8262 19.5029 92.6652 19.1454C92.5022 18.788 92.3274 18.5818 92.137 18.5269H101.243V18.9118L101.486 21.7101C101.392 21.3311 101.237 20.9737 101.021 20.6359C100.805 20.2982 100.538 19.9997 100.22 19.7424C99.9017 19.4852 99.5345 19.2829 99.1142 19.1356C98.694 18.9883 98.2286 18.9118 97.716 18.9118H94.8155V25.4413H96.6595C97.011 25.4413 97.3331 25.4 97.6237 25.3195C97.9144 25.239 98.1638 25.1369 98.3739 25.0151C98.582 24.8934 98.749 24.7657 98.8707 24.6302C98.9925 24.4947 99.0671 24.3808 99.0946 24.2866V26.9632C99.0671 26.8689 98.9925 26.755 98.8707 26.6195C98.749 26.484 98.584 26.3564 98.3739 26.2346C98.1638 26.1129 97.9144 26.0108 97.6237 25.9303C97.3331 25.8478 97.013 25.8085 96.6595 25.8085H94.8155V32.338H97.716V32.3361Z" fill="#92643D"/>
<path d="M105.2 20.8382C105.173 21.5274 105.338 22.1028 105.697 22.5623C106.056 23.0219 106.516 23.4303 107.076 23.7897C107.635 24.1491 108.248 24.4868 108.91 24.805C109.571 25.1231 110.186 25.4766 110.754 25.8693C111.321 26.2621 111.798 26.7275 112.183 27.2695C112.568 27.8115 112.761 28.4851 112.761 29.2981C112.761 29.8793 112.629 30.386 112.364 30.818C112.101 31.25 111.753 31.6094 111.321 31.8922C110.889 32.1769 110.388 32.389 109.821 32.5304C109.253 32.6718 108.672 32.7445 108.077 32.7445C107.427 32.7445 106.793 32.66 106.17 32.4911C105.548 32.3223 104.986 32.0729 104.487 31.741C103.987 31.4091 103.584 30.9987 103.28 30.5038C102.975 30.0109 102.824 29.4316 102.824 28.7698C102.946 29.2568 103.154 29.679 103.452 30.0364C103.749 30.3958 104.095 30.6982 104.487 30.9496C104.88 31.201 105.302 31.3895 105.754 31.5171C106.206 31.6448 106.663 31.7233 107.123 31.7508C107.568 31.7646 108.014 31.7233 108.462 31.6291C108.908 31.5348 109.31 31.3816 109.668 31.1735C110.025 30.9653 110.314 30.7002 110.53 30.3821C110.746 30.0639 110.856 29.683 110.856 29.2372C110.856 28.6422 110.667 28.1414 110.288 27.7369C109.909 27.3304 109.44 26.9631 108.88 26.6313C108.319 26.3014 107.71 25.9793 107.056 25.669C106.402 25.3588 105.791 25.017 105.232 24.6439C104.67 24.2728 104.201 23.8329 103.822 23.3263C103.443 22.8196 103.254 22.2089 103.254 21.4921C103.254 20.9521 103.362 20.4925 103.578 20.1135C103.794 19.7345 104.085 19.4242 104.45 19.1807C104.815 18.9372 105.237 18.7625 105.717 18.6545C106.196 18.5464 106.7 18.4915 107.227 18.4915C108.105 18.4915 108.971 18.6309 109.823 18.9078C110.675 19.1847 111.357 19.5813 111.871 20.0939V23.9664C111.641 23.1024 111.341 22.3483 110.968 21.7061C110.595 21.064 110.194 20.5259 109.762 20.0939C109.33 19.6619 108.884 19.3359 108.423 19.1199C107.961 18.9038 107.529 18.7939 107.125 18.7939C106.596 18.7939 106.151 18.9706 105.785 19.3221C105.42 19.6736 105.224 20.1803 105.198 20.8421L105.2 20.8382Z" fill="#92643D"/>
<path d="M125.578 21.7101C125.484 21.3311 125.329 20.9737 125.112 20.6359C124.896 20.2982 124.629 19.9997 124.311 19.7424C123.993 19.4852 123.622 19.2829 123.196 19.1356C122.77 18.9864 122.3 18.9118 121.786 18.9118H120.568V30.6728C120.568 31.2678 120.647 31.745 120.802 32.1024C120.957 32.4598 121.13 32.666 121.319 32.721H117.872C118.061 32.6679 118.237 32.4598 118.398 32.1024C118.561 31.743 118.642 31.2678 118.642 30.6728V18.9118H117.424C116.91 18.9118 116.441 18.9864 116.016 19.1356C115.59 19.2849 115.219 19.4871 114.901 19.7424C114.583 19.9997 114.32 20.2962 114.11 20.6359C113.899 20.9737 113.74 21.3331 113.632 21.7101L113.895 18.9118V18.5269H125.313V18.9118L125.576 21.7101H125.578Z" fill="#92643D"/>
<path d="M139.369 30.6727C139.369 31.2677 139.45 31.745 139.613 32.1024C139.774 32.4598 139.951 32.666 140.139 32.7209H136.693C136.881 32.6679 137.054 32.4598 137.209 32.1024C137.364 31.743 137.443 31.2677 137.443 30.6727V21.771L133.875 28.8287C133.969 29.0035 134.087 29.1901 134.228 29.3865C134.37 29.5828 134.523 29.7615 134.684 29.9245C134.845 30.0875 135.008 30.2289 135.171 30.3507C135.332 30.4724 135.481 30.547 135.617 30.5745H131.966C132.102 30.5333 132.17 30.3998 132.17 30.168C132.17 30.0188 132.141 29.8342 132.078 29.6103C132.017 29.3865 131.913 29.141 131.764 28.87L128.235 21.8751V27.5935C128.235 28.1198 128.249 28.6559 128.274 29.196C128.302 29.738 128.363 30.2407 128.457 30.7061C128.551 31.1715 128.692 31.5859 128.883 31.9433C129.071 32.3027 129.337 32.5619 129.674 32.7249H126.369C126.654 32.5619 126.89 32.2928 127.078 31.9138C127.267 31.5348 127.42 31.1067 127.534 30.6256C127.648 30.1464 127.726 29.6398 127.768 29.1056C127.807 28.5715 127.828 28.0688 127.828 27.5955V21.066L127.444 20.3158C127.2 19.8426 126.96 19.44 126.725 19.1081C126.487 18.7782 126.269 18.5838 126.065 18.5308H128.539L133.671 28.4478L138.598 18.5308H140.139C139.951 18.5838 139.774 18.7919 139.613 19.1493C139.45 19.5087 139.369 19.9839 139.369 20.579V30.6767V30.6727Z" fill="#92643D"/>
<path d="M147.095 32.3361C147.609 32.3361 148.075 32.2614 148.493 32.1122C148.911 31.963 149.281 31.7607 149.599 31.5034C149.917 31.2462 150.184 30.9496 150.4 30.6119C150.616 30.2741 150.771 29.9147 150.865 29.5377L150.622 32.3361V32.721H141.516C141.704 32.6679 141.881 32.4598 142.044 32.1024C142.205 31.743 142.288 31.2678 142.288 30.6728V20.5751C142.288 19.98 142.205 19.5029 142.044 19.1454C141.881 18.788 141.706 18.5818 141.516 18.5269H150.622V18.9118L150.865 21.7101C150.771 21.3311 150.616 20.9737 150.4 20.6359C150.184 20.2982 149.917 19.9997 149.599 19.7424C149.281 19.4852 148.913 19.2829 148.493 19.1356C148.073 18.9883 147.607 18.9118 147.095 18.9118H144.194V25.4413H146.038C146.39 25.4413 146.712 25.4 147.003 25.3195C147.293 25.239 147.543 25.1369 147.753 25.0151C147.961 24.8934 148.128 24.7657 148.25 24.6302C148.371 24.4947 148.446 24.3808 148.473 24.2866V26.9632C148.446 26.8689 148.371 26.755 148.25 26.6195C148.128 26.484 147.963 26.3564 147.753 26.2346C147.543 26.1129 147.293 26.0108 147.003 25.9303C146.712 25.8478 146.392 25.8085 146.038 25.8085H144.194V32.338H147.095V32.3361Z" fill="#92643D"/>
<path d="M162.344 31.5054C162.56 31.7901 162.79 32.0493 163.033 32.287C163.277 32.5246 163.498 32.6699 163.703 32.7229H160.843L154.01 21.6099V27.5916C154.01 28.1179 154.023 28.654 154.049 29.194C154.076 29.736 154.137 30.2387 154.231 30.7042C154.326 31.1696 154.467 31.5839 154.658 31.9413C154.846 32.3007 155.111 32.5599 155.449 32.7229H152.144C152.429 32.5599 152.664 32.2909 152.853 31.9119C153.041 31.5329 153.195 31.1048 153.308 30.6236C153.422 30.1445 153.501 29.6378 153.542 29.1037C153.581 28.5695 153.603 28.0668 153.603 27.5935V20.9423L153.218 20.3139C152.935 19.8681 152.684 19.4714 152.468 19.1277C152.252 18.7841 152.042 18.5838 151.84 18.5308H154.314L161.939 30.9005V23.6621C161.939 23.1338 161.926 22.5997 161.9 22.0597C161.872 21.5196 161.808 21.0149 161.708 20.5495C161.607 20.0841 161.46 19.6717 161.272 19.3123C161.083 18.953 160.818 18.6938 160.48 18.5308H163.785C163.5 18.6918 163.269 18.9628 163.086 19.3418C162.903 19.7208 162.754 20.1489 162.64 20.63C162.524 21.1092 162.448 21.6158 162.407 22.15C162.367 22.6841 162.346 23.1888 162.346 23.6601V31.5073L162.344 31.5054Z" fill="#92643D"/>
<path d="M176.357 21.7101C176.263 21.3311 176.108 20.9737 175.892 20.6359C175.676 20.2982 175.409 19.9997 175.091 19.7424C174.772 19.4852 174.401 19.2829 173.975 19.1356C173.549 18.9864 173.08 18.9118 172.565 18.9118H171.348V30.6728C171.348 31.2678 171.426 31.745 171.581 32.1024C171.736 32.4598 171.909 32.666 172.098 32.721H168.651C168.84 32.6679 169.017 32.4598 169.178 32.1024C169.341 31.743 169.421 31.2678 169.421 30.6728V18.9118H168.204C167.689 18.9118 167.22 18.9864 166.796 19.1356C166.369 19.2849 165.998 19.4871 165.68 19.7424C165.362 19.9997 165.099 20.2962 164.889 20.6359C164.679 20.9737 164.52 21.3331 164.412 21.7101L164.675 18.9118V18.5269H176.092V18.9118L176.355 21.7101H176.357Z" fill="#92643D"/>
<path d="M179.582 20.8382C179.554 21.5274 179.719 22.1028 180.079 22.5623C180.438 23.0219 180.897 23.4303 181.457 23.7897C182.017 24.1491 182.629 24.4868 183.291 24.805C183.953 25.1231 184.568 25.4766 185.135 25.8693C185.703 26.2621 186.18 26.7275 186.565 27.2695C186.95 27.8115 187.142 28.4851 187.142 29.2981C187.142 29.8793 187.011 30.386 186.746 30.818C186.482 31.25 186.135 31.6094 185.703 31.8922C185.271 32.1769 184.77 32.389 184.202 32.5304C183.635 32.6718 183.054 32.7445 182.459 32.7445C181.809 32.7445 181.174 32.66 180.552 32.4911C179.929 32.3223 179.368 32.0729 178.869 31.741C178.368 31.4091 177.966 30.9987 177.661 30.5038C177.357 30.0109 177.206 29.4316 177.206 28.7698C177.327 29.2568 177.535 29.679 177.834 30.0364C178.131 30.3958 178.476 30.6982 178.869 30.9496C179.262 31.201 179.684 31.3895 180.136 31.5171C180.587 31.6448 181.045 31.7233 181.504 31.7508C181.95 31.7646 182.396 31.7233 182.844 31.6291C183.289 31.5348 183.692 31.3816 184.049 31.1735C184.407 30.9653 184.695 30.7002 184.911 30.3821C185.127 30.0639 185.237 29.683 185.237 29.2372C185.237 28.6422 185.049 28.1414 184.67 27.7369C184.291 27.3304 183.822 26.9631 183.262 26.6313C182.7 26.3014 182.091 25.9793 181.437 25.669C180.784 25.3588 180.173 25.017 179.613 24.6439C179.052 24.2728 178.582 23.8329 178.203 23.3263C177.824 22.8196 177.636 22.2089 177.636 21.4921C177.636 20.9521 177.744 20.4925 177.96 20.1135C178.176 19.7345 178.466 19.4242 178.832 19.1807C179.197 18.9372 179.619 18.7625 180.098 18.6545C180.577 18.5464 181.082 18.4915 181.608 18.4915C182.486 18.4915 183.352 18.6309 184.204 18.9078C185.057 19.1847 185.738 19.5813 186.253 20.0939V23.9664C186.023 23.1024 185.722 22.3483 185.349 21.7061C184.978 21.064 184.576 20.5259 184.144 20.0939C183.712 19.6619 183.266 19.3359 182.804 19.1199C182.343 18.9038 181.911 18.7939 181.506 18.7939C180.978 18.7939 180.532 18.9706 180.167 19.3221C179.802 19.6736 179.605 20.1803 179.58 20.8421L179.582 20.8382Z" fill="#92643D"/>
<path d="M67.8865 50.0433C68.401 50.0433 68.8704 49.9687 69.2945 49.8195C69.7207 49.6702 70.0918 49.468 70.41 49.2107C70.7281 48.9535 70.9952 48.6569 71.2112 48.3191C71.4272 47.9814 71.5823 47.622 71.6766 47.245L71.4134 50.0433V50.4282H62.0659C62.2544 50.3752 62.4312 50.1671 62.5942 49.8097C62.7552 49.4503 62.8377 48.975 62.8377 48.38V38.2823C62.8377 37.6873 62.7552 37.2101 62.5942 36.8527C62.4312 36.4953 62.2564 36.2891 62.0659 36.2341H65.5123C65.3238 36.2872 65.1471 36.4953 64.986 36.8527C64.8231 37.2121 64.7425 37.6873 64.7425 38.2823V50.0433H67.8865Z" fill="#92643D"/>
<path d="M75.2879 48.382C75.2879 48.977 75.3685 49.4542 75.5314 49.8116C75.6925 50.169 75.8692 50.3752 76.0577 50.4302H72.6113C72.7998 50.3772 72.9766 50.169 73.1396 49.8116C73.3006 49.4522 73.3831 48.977 73.3831 48.382V38.2843C73.3831 37.6893 73.3006 37.2121 73.1396 36.8547C72.9766 36.4973 72.8018 36.2911 72.6113 36.2361H76.0577C75.8692 36.2891 75.6925 36.4973 75.5314 36.8547C75.3685 37.214 75.2879 37.6893 75.2879 38.2843V48.382Z" fill="#92643D"/>
<path d="M90.3148 48.382C90.3148 48.977 90.3953 49.4542 90.5583 49.8116C90.7193 50.169 90.8961 50.3752 91.0846 50.4302H87.6382C87.8267 50.3771 87.9995 50.169 88.1546 49.8116C88.3098 49.4522 88.3883 48.977 88.3883 48.382V39.4802L84.8202 46.538C84.9144 46.7128 85.0322 46.8993 85.1736 47.0957C85.315 47.2921 85.4682 47.4708 85.6292 47.6338C85.7903 47.7968 85.9532 47.9381 86.1162 48.0599C86.2773 48.1817 86.4265 48.2563 86.562 48.2838H82.9114C83.0469 48.2425 83.1156 48.109 83.1156 47.8773C83.1156 47.728 83.0861 47.5434 83.0233 47.3196C82.9624 47.0957 82.8584 46.8502 82.7091 46.5792L79.1802 39.5843V45.3028C79.1802 45.8291 79.194 46.3652 79.2195 46.9052C79.247 47.4472 79.3079 47.9499 79.4021 48.4153C79.4964 48.8808 79.6378 49.2951 79.8283 49.6525C80.0168 50.0119 80.2819 50.2711 80.6197 50.4341H77.3146C77.5994 50.2711 77.835 50.0021 78.0236 49.6231C78.2121 49.2441 78.3653 48.816 78.4792 48.3348C78.5931 47.8557 78.6716 47.349 78.7128 46.8149C78.7521 46.2807 78.7737 45.778 78.7737 45.3047V38.7752L78.3888 38.0251C78.1453 37.5518 77.9057 37.1492 77.6701 36.8173C77.4325 36.4874 77.2145 36.293 77.0103 36.24H79.4846L84.6159 46.157L89.543 36.24H91.0846C90.8961 36.293 90.7193 36.5012 90.5583 36.8586C90.3953 37.218 90.3148 37.6932 90.3148 38.2882V48.3859V48.382Z" fill="#92643D"/>
<path d="M95.1417 48.382C95.1417 48.977 95.2222 49.4542 95.3852 49.8116C95.5462 50.169 95.723 50.3752 95.9115 50.4302H92.4651C92.6536 50.3772 92.8303 50.169 92.9933 49.8116C93.1544 49.4522 93.2369 48.977 93.2369 48.382V38.2843C93.2369 37.6893 93.1544 37.2121 92.9933 36.8547C92.8303 36.4973 92.6556 36.2911 92.4651 36.2361H95.9115C95.723 36.2891 95.5462 36.4973 95.3852 36.8547C95.2222 37.214 95.1417 37.6893 95.1417 38.2843V48.382Z" fill="#92643D"/>
<path d="M108.768 39.4174C108.674 39.0384 108.519 38.681 108.303 38.3432C108.087 38.0054 107.82 37.707 107.501 37.4497C107.183 37.1924 106.812 36.9902 106.386 36.8429C105.96 36.6936 105.491 36.619 104.976 36.619H103.759V48.38C103.759 48.975 103.837 49.4522 103.992 49.8097C104.147 50.1671 104.32 50.3732 104.509 50.4282H101.062C101.251 50.3752 101.428 50.1671 101.589 49.8097C101.752 49.4503 101.832 48.975 101.832 48.38V36.619H100.615C100.1 36.619 99.6307 36.6936 99.2065 36.8429C98.7804 36.9921 98.4092 37.1944 98.0911 37.4497C97.773 37.707 97.5098 38.0035 97.2997 38.3432C97.0896 38.681 96.9305 39.0404 96.8225 39.4174L97.0857 36.619V36.2341H108.503V36.619L108.766 39.4174H108.768Z" fill="#92643D"/>
<path d="M115.054 50.0433C115.569 50.0433 116.034 49.9687 116.452 49.8195C116.871 49.6702 117.24 49.468 117.558 49.2107C117.876 48.9535 118.143 48.6569 118.359 48.3191C118.575 47.9814 118.73 47.622 118.825 47.245L118.581 50.0433V50.4282H109.475C109.664 50.3752 109.84 50.1671 110.003 49.8097C110.164 49.4503 110.247 48.975 110.247 48.38V38.2823C110.247 37.6873 110.164 37.2101 110.003 36.8527C109.84 36.4953 109.666 36.2891 109.475 36.2341H118.581V36.619L118.825 39.4174C118.73 39.0384 118.575 38.681 118.359 38.3432C118.143 38.0054 117.876 37.707 117.558 37.4497C117.24 37.1924 116.873 36.9902 116.452 36.8429C116.032 36.6956 115.567 36.619 115.054 36.619H112.154V43.1486H113.998C114.349 43.1486 114.671 43.1073 114.962 43.0268C115.252 42.9463 115.502 42.8442 115.712 42.7224C115.92 42.6007 116.087 42.473 116.209 42.3375C116.331 42.202 116.405 42.0881 116.433 41.9939V44.6705C116.405 44.5762 116.331 44.4623 116.209 44.3268C116.087 44.1913 115.922 44.0637 115.712 43.9419C115.502 43.8202 115.252 43.718 114.962 43.6375C114.671 43.5551 114.351 43.5158 113.998 43.5158H112.154V50.0453H115.054V50.0433Z" fill="#92643D"/>
<path d="M125.234 36.2341C126.275 36.2341 127.181 36.4364 127.952 36.8429C128.722 37.2474 129.364 37.7855 129.879 38.4552C130.391 39.1248 130.776 39.8808 131.033 40.7272C131.291 41.5716 131.418 42.4416 131.418 43.3332C131.418 44.2247 131.289 45.0946 131.033 45.9391C130.776 46.7835 130.391 47.5415 129.879 48.2111C129.364 48.8808 128.722 49.4169 127.952 49.8234C127.181 50.2299 126.275 50.4322 125.234 50.4322H120.225C120.413 50.3791 120.59 50.171 120.753 49.8136C120.914 49.4542 120.997 48.979 120.997 48.384V38.2863C120.997 37.6912 120.914 37.214 120.753 36.8566C120.59 36.4992 120.415 36.293 120.225 36.2381H125.234V36.2341ZM125.234 50.0433C125.937 50.0433 126.55 49.8509 127.071 49.466C127.591 49.0811 128.027 48.5705 128.378 47.9343C128.73 47.298 128.993 46.5753 129.17 45.7643C129.347 44.9532 129.433 44.1285 129.433 43.2899C129.433 42.4514 129.345 41.6345 129.17 40.8352C128.995 40.0379 128.734 39.3251 128.39 38.6967C128.045 38.0683 127.609 37.5636 127.082 37.1866C126.554 36.8075 125.939 36.619 125.236 36.619H122.905V50.0433H125.236H125.234Z" fill="#92643D"/>
<defs>
<linearGradient id="paint0_linear_6_4" x1="1.25787" y1="7.04665" x2="51.9643" y2="46.051" gradientUnits="userSpaceOnUse">
<stop stop-color="#92643D"/>
<stop offset="0.05" stop-color="#986A42"/>
<stop offset="0.13" stop-color="#A97D51"/>
<stop offset="0.23" stop-color="#C59C6A"/>
<stop offset="0.33" stop-color="#EEC98D"/>
<stop offset="0.52" stop-color="#FFDFB2"/>
<stop offset="0.66" stop-color="#F1CA90"/>
<stop offset="1" stop-color="#92643D"/>
</linearGradient>
<linearGradient id="paint1_linear_6_4" x1="38.9936" y1="9.5856" x2="30.2881" y2="25.1977" gradientUnits="userSpaceOnUse">
<stop stop-color="#FDEA86"/>
<stop offset="0.45" stop-color="#FFE45A"/>
<stop offset="1" stop-color="#B27A2B"/>
</linearGradient>
<linearGradient id="paint2_linear_6_4" x1="35.3057" y1="27.0477" x2="34.1549" y2="29.1116" gradientUnits="userSpaceOnUse">
<stop stop-color="#ECC68B"/>
<stop offset="0.45" stop-color="#CBA366"/>
<stop offset="1" stop-color="#92643D"/>
</linearGradient>
<linearGradient id="paint3_linear_6_4" x1="10.134" y1="33.862" x2="40.922" y2="45.2224" gradientUnits="userSpaceOnUse">
<stop stop-color="#B28A4D"/>
<stop offset="0.11" stop-color="#B89053"/>
<stop offset="0.28" stop-color="#CAA366"/>
<stop offset="0.33" stop-color="#D3AC6F"/>
<stop offset="0.52" stop-color="#F6D889"/>
<stop offset="0.66" stop-color="#D8B278"/>
<stop offset="1" stop-color="#92643D"/>
</linearGradient>
<linearGradient id="paint4_linear_6_4" x1="19.1439" y1="35.4938" x2="29.4301" y2="33.3356" gradientUnits="userSpaceOnUse">
<stop stop-color="#92643D"/>
<stop offset="0.17" stop-color="#B48A5A"/>
<stop offset="0.32" stop-color="#D8B278"/>
<stop offset="0.81" stop-color="#FFDFB2"/>
</linearGradient>
<linearGradient id="paint5_linear_6_4" x1="32.4858" y1="11.5044" x2="27.5155" y2="20.7773" gradientUnits="userSpaceOnUse">
<stop stop-color="#92643D"/>
<stop offset="0.07" stop-color="#986A41"/>
<stop offset="0.18" stop-color="#A97D4E"/>
<stop offset="0.3" stop-color="#C59C63"/>
<stop offset="0.33" stop-color="#CFA76B"/>
<stop offset="0.52" stop-color="#F4D196"/>
<stop offset="0.66" stop-color="#D3AC6F"/>
<stop offset="1" stop-color="#92643D"/>
</linearGradient>
<linearGradient id="paint6_linear_6_4" x1="21.463" y1="37.548" x2="12.8126" y2="13.6921" gradientUnits="userSpaceOnUse">
<stop stop-color="#B27A2B"/>
<stop offset="0.07" stop-color="#B57E31"/>
<stop offset="0.16" stop-color="#BE8C44"/>
<stop offset="0.28" stop-color="#CDA363"/>
<stop offset="0.33" stop-color="#D6B075"/>
<stop offset="0.52" stop-color="#FFDFB2"/>
<stop offset="0.66" stop-color="#D7B075"/>
<stop offset="1" stop-color="#92643D"/>
</linearGradient>
<linearGradient id="paint7_linear_6_4" x1="20.6952" y1="30.6235" x2="31.7374" y2="57.2659" gradientUnits="userSpaceOnUse">
<stop stop-color="#92643D"/>
<stop offset="0.08" stop-color="#986A41"/>
<stop offset="0.2" stop-color="#A97D4C"/>
<stop offset="0.33" stop-color="#C39A5E"/>
<stop offset="0.52" stop-color="#F3CF94"/>
<stop offset="0.66" stop-color="#C8A165"/>
<stop offset="1" stop-color="#92643D"/>
</linearGradient>
</defs>
</svg>
