<svg width="188" height="51" viewBox="0 0 188 51" fill="none" xmlns="http://www.w3.org/2000/svg">
<g clip-path="url(#clip0_235_2)">
<path d="M50.3736 23.1083C50.3736 23.1083 50.4208 14.9901 42.6187 7.40013C40.0521 4.83545 33.9782 0.687978 26.1918 0.689942C24.8584 0.689942 22.3959 0.880428 22.3487 0.874537C10.7507 2.44948 5.48783 10.8603 5.48783 10.8603C8.9637 6.39272 16.3632 5.02398 16.3632 5.02398C31.9398 2.60462 38.2709 13.9611 38.2709 13.9611C44.9104 24.0156 40.6609 32.7641 40.6609 32.7641C37.3087 25.5336 30.4512 24.697 30.4512 24.697C31.6216 24.3906 32.468 23.3577 32.468 23.3577C30.6378 23.8486 26.1997 23.3616 26.1997 23.3616C19.3108 23.2065 18.7845 26.9298 18.7845 26.9298C15.4952 30.5608 18.4428 32.391 18.4428 32.391C17.9774 29.5769 21.3904 29.4748 21.3904 29.4748C28.2165 29.7223 27.6588 36.3009 27.6588 36.3009C26.1074 44.4937 16.1157 41.6384 16.1157 41.6384C6.98029 38.4198 7.98574 28.0472 7.98574 28.0472C8.66913 13.588 21.9756 12.4961 21.9756 12.4961C36.0637 11.5024 38.7658 23.0828 38.7658 23.0828C36.1462 10.0296 26.4766 7.33533 20.7659 6.91312C20.762 6.91508 19.407 6.75601 18.0952 6.86009C18.0618 6.86009 18.0265 6.86206 17.9931 6.86403C17.9931 6.86403 13.8181 7.1743 10.3403 9.49351C10.3364 9.49547 10.3324 9.4994 10.3285 9.50136C9.33878 10.1042 8.47865 10.713 7.73241 11.308C7.73241 11.308 6.56004 12.2231 5.08722 13.8452C4.65519 14.3519 4.31546 14.8134 4.05035 15.212C4.05035 15.212 2.67768 16.9656 1.75864 20.2392C1.31482 21.5589 1.10077 23.0887 1.01437 24.5379C1.00259 24.7088 0.99473 24.8659 0.990802 25.0151C0.939745 26.2248 0.969201 27.354 1.0183 28.2259C1.0183 28.2318 1.51709 31.7175 2.15924 33.5693C2.88584 35.4486 4.09945 37.6637 6.1182 39.6373C21.1017 51.9325 29.9976 42.4828 29.9976 42.4828C34.962 36.7742 27.7216 28.9132 27.7216 28.9132C33.3478 31.9335 33.2653 37.7678 33.2653 37.7678C33.6679 44.0813 27.6391 46.373 27.6391 46.373C16.7147 50.8347 7.55175 43.1878 7.55175 43.1878C10.9824 46.8679 15.452 48.8395 19.0496 49.8901C27.2542 52.2486 37.4521 49.1145 42.4263 44.1069C44.6768 41.8269 46.2105 39.6255 46.2105 39.6255C47.2238 38.1488 47.752 37.1001 47.752 37.1001C51.4812 30.498 50.3736 23.1063 50.3736 23.1063V23.1083ZM23.7057 25.944C23.6507 26.0795 22.7415 26.8179 20.9643 26.5645C20.9643 26.5645 22.7827 25.6219 23.3149 25.0328C23.5172 24.8089 23.8235 25.6573 23.7077 25.944H23.7057Z" fill="url(#paint0_linear_235_2)"/>
<path d="M30.4512 24.697L30.7045 24.6597C30.622 24.6773 30.5395 24.6891 30.4512 24.697Z" fill="url(#paint1_linear_235_2)"/>
<path d="M27.5999 25.5452C29.0589 25.3017 30.4512 24.6968 30.4512 24.6968C30.4512 24.6968 37.3087 25.5354 40.6609 32.764C35.8241 26.4151 27.5999 25.5452 27.5999 25.5452Z" fill="url(#paint2_linear_235_2)"/>
<path d="M17.2939 44.4367C27.7353 47.2036 33.2633 39.1718 29.862 31.896C29.862 31.896 29.866 31.9 29.8679 31.9039C31.5096 34.716 33.0257 39.001 29.9956 42.4866C29.9956 42.4866 21.0997 51.9343 6.11618 39.6411C4.09743 37.6676 2.88382 35.4524 2.15723 33.5731C2.15723 33.5731 3.48081 36.7014 6.56196 39.2916C9.0854 41.4144 12.8303 43.2545 17.2959 44.4367H17.2939Z" fill="url(#paint3_linear_235_2)"/>
<path d="M27.6587 36.3007C27.6587 36.3007 28.2165 29.7221 21.3904 29.4746C21.3904 29.4746 17.9774 29.5787 18.4428 32.3908C18.4428 32.3908 17.6553 30.9887 18.6726 29.4236C19.7978 27.6915 24.8565 27.1751 27.3779 30.0009C29.8994 32.8268 29.3888 40.2361 23.4465 41.544C25.3808 40.8272 27.0912 39.3092 27.6607 36.3007H27.6587Z" fill="url(#paint4_linear_235_2)"/>
<path d="M40.661 32.7639C40.661 32.7639 44.9125 24.0134 38.2711 13.9609C38.2711 13.9609 31.9418 2.60436 16.3633 5.02372L16.4163 5.00605C16.4163 5.00605 16.5714 4.9648 16.5734 4.9648C21.8952 3.85135 31.9163 3.48805 38.6952 12.5136C46.8547 23.3771 40.659 32.7639 40.659 32.7639H40.661Z" fill="url(#paint5_linear_235_2)"/>
<path d="M6.56388 28.0041C6.74651 16.0251 17.7102 10.9959 24.9899 12.4766C24.9919 12.4766 24.9938 12.4766 24.9958 12.4766C24.0532 12.4176 23.0477 12.4196 21.9775 12.4942C21.9775 12.4942 8.66904 13.5861 7.98761 28.0453C7.98761 28.0453 7.00377 38.2235 15.8662 41.5423C13.1778 40.6939 6.41856 37.603 6.56585 28.0001L6.56388 28.0041Z" fill="url(#paint6_linear_235_2)"/>
<path d="M15.9468 47.2056C19.2616 48.0107 23.3109 48.1442 27.639 46.3749C27.639 46.3749 33.6678 44.0832 33.2652 37.7697C33.2652 37.7697 33.3418 32.2613 28.181 29.1782C28.0239 29.0682 27.8708 28.9779 27.7215 28.915C27.7215 28.915 38.1707 33.2923 33.7699 43.1072C31.058 49.1536 21.4728 48.7059 15.9487 47.2056H15.9468Z" fill="url(#paint7_linear_235_2)"/>
<path d="M69.8936 15.0135C70.0153 14.986 70.1174 14.8917 70.1979 14.7287C70.2804 14.5677 70.3197 14.3497 70.3197 14.0807C70.3197 13.8117 70.2726 13.5269 70.1783 13.2284L69.1238 9.88212H64.4402C64.2791 10.3829 64.1495 10.8856 64.0553 11.3923C63.961 11.899 63.9139 12.382 63.9139 12.8416C63.9139 13.3423 63.9767 13.7842 64.1063 14.171C64.234 14.5559 64.4539 14.8367 64.7662 15.0115H61.198C61.414 14.9585 61.6241 14.8269 61.8264 14.6168C62.0306 14.4067 62.2388 14.1003 62.4548 13.6938C62.6708 13.2873 62.9006 12.7709 63.1441 12.1425C63.3876 11.5141 63.6586 10.76 63.9551 9.88212L66.5512 1.93279C66.402 1.62252 66.241 1.36919 66.0642 1.17282C65.8875 0.976435 65.7264 0.858611 65.5772 0.819336H68.3756L72.2069 13.2304C72.3699 13.7449 72.5682 14.1573 72.8058 14.4676C73.0415 14.7778 73.2614 14.9605 73.4656 15.0155H69.8975L69.8936 15.0135ZM69.002 9.49723L66.8124 2.60244L64.56 9.49723H69.002Z" fill="white"/>
<path d="M84.7984 0.819837C84.5137 0.980866 84.278 1.25186 84.0895 1.63087C83.901 2.00988 83.7478 2.43798 83.6339 2.9191C83.518 3.39826 83.4414 3.90491 83.4002 4.43905C83.359 4.9732 83.3393 5.47789 83.3393 5.94919V11.1197C83.3393 11.7678 83.2077 12.3353 82.9446 12.8223C82.6815 13.3093 82.3339 13.7158 81.8999 14.0399C81.4679 14.3639 80.973 14.6074 80.4192 14.7704C79.8654 14.9334 79.2959 15.0139 78.7147 15.0139C78.1334 15.0139 77.5658 14.9334 77.0101 14.7704C76.4544 14.6074 75.9615 14.3639 75.5294 14.0399C75.0974 13.7158 74.7459 13.3093 74.4749 12.8223C74.2039 12.3353 74.0703 11.7678 74.0703 11.1197V2.86607C74.0703 2.27105 73.9879 1.79386 73.8268 1.43645C73.6638 1.07905 73.4891 0.872856 73.2986 0.817871H76.745C76.5565 0.870893 76.3797 1.07905 76.2187 1.43645C76.0557 1.79582 75.9752 2.27105 75.9752 2.86607V11.1197C75.9752 11.6598 76.0734 12.1331 76.2698 12.5396C76.4661 12.9441 76.7254 13.2819 77.0513 13.5529C77.3754 13.8239 77.7445 14.0261 78.1569 14.1616C78.5693 14.2971 78.9915 14.3639 79.4236 14.3639C79.8556 14.3639 80.2817 14.2971 80.7 14.1616C81.1183 14.0261 81.4934 13.8239 81.8253 13.5529C82.1571 13.2819 82.4242 12.9441 82.6265 12.5396C82.8287 12.1331 82.9309 11.6617 82.9309 11.1197V5.94919C82.9309 5.42094 82.9171 4.88679 82.8896 4.34676C82.8621 3.80672 82.8013 3.30203 82.707 2.83662C82.6127 2.37121 82.4713 1.95882 82.2809 1.59945C82.0923 1.24008 81.8272 0.980864 81.4895 0.817871H84.7945L84.7984 0.819837Z" fill="white"/>
<path d="M97.2703 4.0026C97.176 3.6236 97.0209 3.26619 96.8049 2.92842C96.5889 2.59066 96.3218 2.29217 96.0037 2.03491C95.6855 1.77766 95.3144 1.57539 94.8883 1.42811C94.4621 1.27886 93.9928 1.20424 93.4783 1.20424H92.2607V12.9653C92.2607 13.5603 92.3393 14.0375 92.4944 14.3949C92.6496 14.7523 92.8224 14.9585 93.0109 15.0135H89.5645C89.753 14.9605 89.9297 14.7523 90.0908 14.3949C90.2538 14.0355 90.3343 13.5603 90.3343 12.9653V1.20424H89.1167C88.6022 1.20424 88.1329 1.27886 87.7087 1.42811C87.2826 1.57736 86.9114 1.77962 86.5933 2.03491C86.2752 2.29217 86.012 2.58869 85.8019 2.92842C85.5918 3.26619 85.4327 3.62556 85.3247 4.0026L85.5879 1.20424V0.819336H97.0052V1.20424L97.2683 4.0026H97.2703Z" fill="white"/>
<path d="M64.7445 30.6728C64.7445 31.2678 64.825 31.745 64.988 32.1024C65.149 32.4598 65.3258 32.666 65.5143 32.721H62.0679C62.2564 32.6679 62.4331 32.4598 62.5961 32.1024C62.7572 31.743 62.8396 31.2678 62.8396 30.6728V20.5751C62.8396 19.98 62.7572 19.5029 62.5961 19.1454C62.4331 18.788 62.2584 18.5818 62.0679 18.5269H65.5143C65.3258 18.5799 65.149 18.788 64.988 19.1454C64.825 19.5048 64.7445 19.98 64.7445 20.5751V30.6728Z" fill="white"/>
<path d="M76.971 31.5054C77.187 31.7901 77.4168 32.0493 77.6603 32.287C77.9038 32.5246 78.1257 32.6699 78.3299 32.7229H75.4707L68.6368 21.6099V27.5916C68.6368 28.1179 68.6505 28.654 68.676 29.194C68.7035 29.736 68.7644 30.2387 68.8587 30.7042C68.9529 31.1696 69.0943 31.5839 69.2848 31.9413C69.4733 32.3007 69.7384 32.5599 70.0762 32.7229H66.7712C67.0559 32.5599 67.2916 32.2909 67.4801 31.9119C67.6686 31.5329 67.8218 31.1048 67.9357 30.6236C68.0496 30.1445 68.1281 29.6378 68.1694 29.1037C68.2087 28.5695 68.2303 28.0668 68.2303 27.5935V20.9423L67.8454 20.3139C67.5626 19.8681 67.3112 19.4714 67.0952 19.1277C66.8792 18.7841 66.6691 18.5838 66.4668 18.5308H68.9411L76.5665 30.9005V23.6621C76.5665 23.1338 76.5527 22.5997 76.5272 22.0597C76.4997 21.5196 76.4349 21.0149 76.3347 20.5495C76.2346 20.0841 76.0873 19.6717 75.8988 19.3123C75.7102 18.953 75.4451 18.6938 75.1074 18.5308H78.4124C78.1276 18.6918 77.8959 18.9628 77.7133 19.3418C77.5307 19.7208 77.3814 20.1489 77.2675 20.63C77.1517 21.1092 77.0751 21.6158 77.0338 22.15C76.9945 22.6841 76.9729 23.1888 76.9729 23.6601V31.5073L76.971 31.5054Z" fill="white"/>
<path d="M91.4103 18.5269C91.0863 18.6074 90.7839 18.8411 90.507 19.226C90.2301 19.6109 89.9768 20.0606 89.747 20.5751C89.5173 21.0896 89.3072 21.6237 89.1186 22.1775C88.9301 22.7313 88.775 23.2262 88.6532 23.6582L85.9354 32.7229H83.9677L80.3583 20.3119C80.209 19.7974 80.0166 19.385 79.7809 19.0747C79.5433 18.7645 79.3253 18.5818 79.1211 18.5269H82.6303C82.5086 18.5543 82.4065 18.6486 82.326 18.8096C82.2454 18.9726 82.2042 19.1886 82.2042 19.4596C82.2042 19.7306 82.2513 20.0134 82.3456 20.3119L85.7331 31.9924L88.1662 23.6582C88.3154 23.1437 88.4372 22.6311 88.5315 22.1166C88.6257 21.6021 88.6729 21.1171 88.6729 20.6556C88.6729 20.1686 88.6081 19.7365 88.4804 19.3575C88.3528 18.9785 88.1387 18.7016 87.8422 18.5269H91.4103Z" fill="white"/>
<path d="M97.716 32.3361C98.2305 32.3361 98.6959 32.2614 99.1142 32.1122C99.5325 31.963 99.9017 31.7607 100.22 31.5034C100.538 31.2462 100.805 30.9496 101.021 30.6119C101.237 30.2741 101.392 29.9147 101.486 29.5377L101.243 32.3361V32.721H92.137C92.3255 32.6679 92.5022 32.4598 92.6652 32.1024C92.8262 31.743 92.9087 31.2678 92.9087 30.6728V20.5751C92.9087 19.98 92.8262 19.5029 92.6652 19.1454C92.5022 18.788 92.3274 18.5818 92.137 18.5269H101.243V18.9118L101.486 21.7101C101.392 21.3311 101.237 20.9737 101.021 20.6359C100.805 20.2982 100.538 19.9997 100.22 19.7424C99.9017 19.4852 99.5345 19.2829 99.1142 19.1356C98.694 18.9883 98.2286 18.9118 97.716 18.9118H94.8155V25.4413H96.6595C97.011 25.4413 97.3331 25.4 97.6237 25.3195C97.9144 25.239 98.1638 25.1369 98.3739 25.0151C98.582 24.8934 98.749 24.7657 98.8707 24.6302C98.9925 24.4947 99.0671 24.3808 99.0946 24.2866V26.9632C99.0671 26.8689 98.9925 26.755 98.8707 26.6195C98.749 26.484 98.584 26.3564 98.3739 26.2346C98.1638 26.1129 97.9144 26.0108 97.6237 25.9303C97.3331 25.8478 97.013 25.8085 96.6595 25.8085H94.8155V32.338H97.716V32.3361Z" fill="white"/>
<path d="M105.2 20.8384C105.173 21.5276 105.338 22.103 105.697 22.5625C106.056 23.0221 106.516 23.4305 107.076 23.7899C107.635 24.1493 108.248 24.487 108.91 24.8052C109.571 25.1233 110.186 25.4768 110.754 25.8695C111.321 26.2623 111.798 26.7277 112.183 27.2697C112.568 27.8117 112.761 28.4853 112.761 29.2983C112.761 29.8795 112.629 30.3862 112.364 30.8182C112.101 31.2502 111.753 31.6096 111.321 31.8924C110.889 32.1771 110.388 32.3892 109.821 32.5306C109.253 32.672 108.672 32.7447 108.077 32.7447C107.427 32.7447 106.793 32.6602 106.17 32.4913C105.548 32.3225 104.986 32.0731 104.487 31.7412C103.987 31.4093 103.584 30.9989 103.28 30.504C102.975 30.0111 102.824 29.4318 102.824 28.77C102.946 29.257 103.154 29.6792 103.452 30.0366C103.749 30.396 104.095 30.6984 104.487 30.9498C104.88 31.2012 105.302 31.3897 105.754 31.5173C106.206 31.645 106.663 31.7235 107.123 31.751C107.568 31.7648 108.014 31.7235 108.462 31.6293C108.908 31.535 109.31 31.3818 109.668 31.1737C110.025 30.9655 110.314 30.7004 110.53 30.3823C110.746 30.0641 110.856 29.6832 110.856 29.2374C110.856 28.6424 110.667 28.1416 110.288 27.7371C109.909 27.3306 109.44 26.9633 108.88 26.6315C108.319 26.3016 107.71 25.9795 107.056 25.6692C106.402 25.359 105.791 25.0172 105.232 24.6441C104.67 24.273 104.201 23.8331 103.822 23.3265C103.443 22.8198 103.254 22.2091 103.254 21.4923C103.254 20.9523 103.362 20.4927 103.578 20.1137C103.794 19.7347 104.085 19.4244 104.45 19.1809C104.815 18.9374 105.237 18.7627 105.717 18.6547C106.196 18.5466 106.7 18.4917 107.227 18.4917C108.105 18.4917 108.971 18.6311 109.823 18.908C110.675 19.1849 111.357 19.5815 111.871 20.0941V23.9666C111.641 23.1026 111.341 22.3485 110.968 21.7063C110.595 21.0642 110.194 20.5261 109.762 20.0941C109.33 19.6621 108.884 19.3361 108.423 19.1201C107.961 18.904 107.529 18.7941 107.125 18.7941C106.596 18.7941 106.151 18.9708 105.785 19.3223C105.42 19.6738 105.224 20.1805 105.198 20.8423L105.2 20.8384Z" fill="white"/>
<path d="M125.578 21.7101C125.484 21.3311 125.329 20.9737 125.112 20.6359C124.896 20.2982 124.629 19.9997 124.311 19.7424C123.993 19.4852 123.622 19.2829 123.196 19.1356C122.77 18.9864 122.3 18.9118 121.786 18.9118H120.568V30.6728C120.568 31.2678 120.647 31.745 120.802 32.1024C120.957 32.4598 121.13 32.666 121.319 32.721H117.872C118.061 32.6679 118.237 32.4598 118.398 32.1024C118.561 31.743 118.642 31.2678 118.642 30.6728V18.9118H117.424C116.91 18.9118 116.441 18.9864 116.016 19.1356C115.59 19.2849 115.219 19.4871 114.901 19.7424C114.583 19.9997 114.32 20.2962 114.11 20.6359C113.899 20.9737 113.74 21.3331 113.632 21.7101L113.895 18.9118V18.5269H125.313V18.9118L125.576 21.7101H125.578Z" fill="white"/>
<path d="M139.369 30.6727C139.369 31.2677 139.45 31.745 139.613 32.1024C139.774 32.4598 139.951 32.666 140.139 32.7209H136.693C136.881 32.6679 137.054 32.4598 137.209 32.1024C137.364 31.743 137.443 31.2677 137.443 30.6727V21.771L133.875 28.8287C133.969 29.0035 134.087 29.1901 134.228 29.3865C134.37 29.5828 134.523 29.7615 134.684 29.9245C134.845 30.0875 135.008 30.2289 135.171 30.3507C135.332 30.4724 135.481 30.547 135.617 30.5745H131.966C132.102 30.5333 132.17 30.3998 132.17 30.168C132.17 30.0188 132.141 29.8342 132.078 29.6103C132.017 29.3865 131.913 29.141 131.764 28.87L128.235 21.8751V27.5935C128.235 28.1198 128.249 28.6559 128.274 29.196C128.302 29.738 128.363 30.2407 128.457 30.7061C128.551 31.1715 128.692 31.5859 128.883 31.9433C129.071 32.3027 129.337 32.5619 129.674 32.7249H126.369C126.654 32.5619 126.89 32.2928 127.078 31.9138C127.267 31.5348 127.42 31.1067 127.534 30.6256C127.648 30.1464 127.726 29.6398 127.768 29.1056C127.807 28.5715 127.828 28.0688 127.828 27.5955V21.066L127.444 20.3158C127.2 19.8426 126.96 19.44 126.725 19.1081C126.487 18.7782 126.269 18.5838 126.065 18.5308H128.539L133.671 28.4478L138.598 18.5308H140.139C139.951 18.5838 139.774 18.7919 139.613 19.1493C139.45 19.5087 139.369 19.9839 139.369 20.579V30.6767V30.6727Z" fill="white"/>
<path d="M147.095 32.3361C147.609 32.3361 148.075 32.2614 148.493 32.1122C148.911 31.963 149.281 31.7607 149.599 31.5034C149.917 31.2462 150.184 30.9496 150.4 30.6119C150.616 30.2741 150.771 29.9147 150.865 29.5377L150.622 32.3361V32.721H141.516C141.704 32.6679 141.881 32.4598 142.044 32.1024C142.205 31.743 142.288 31.2678 142.288 30.6728V20.5751C142.288 19.98 142.205 19.5029 142.044 19.1454C141.881 18.788 141.706 18.5818 141.516 18.5269H150.622V18.9118L150.865 21.7101C150.771 21.3311 150.616 20.9737 150.4 20.6359C150.184 20.2982 149.917 19.9997 149.599 19.7424C149.281 19.4852 148.913 19.2829 148.493 19.1356C148.073 18.9883 147.607 18.9118 147.095 18.9118H144.194V25.4413H146.038C146.39 25.4413 146.712 25.4 147.003 25.3195C147.293 25.239 147.543 25.1369 147.753 25.0151C147.961 24.8934 148.128 24.7657 148.25 24.6302C148.371 24.4947 148.446 24.3808 148.473 24.2866V26.9632C148.446 26.8689 148.371 26.755 148.25 26.6195C148.128 26.484 147.963 26.3564 147.753 26.2346C147.543 26.1129 147.293 26.0108 147.003 25.9303C146.712 25.8478 146.392 25.8085 146.038 25.8085H144.194V32.338H147.095V32.3361Z" fill="white"/>
<path d="M162.344 31.5054C162.56 31.7901 162.79 32.0493 163.033 32.287C163.277 32.5246 163.498 32.6699 163.703 32.7229H160.843L154.01 21.6099V27.5916C154.01 28.1179 154.023 28.654 154.049 29.194C154.076 29.736 154.137 30.2387 154.231 30.7042C154.326 31.1696 154.467 31.5839 154.658 31.9413C154.846 32.3007 155.111 32.5599 155.449 32.7229H152.144C152.429 32.5599 152.664 32.2909 152.853 31.9119C153.041 31.5329 153.195 31.1048 153.308 30.6236C153.422 30.1445 153.501 29.6378 153.542 29.1037C153.581 28.5695 153.603 28.0668 153.603 27.5935V20.9423L153.218 20.3139C152.935 19.8681 152.684 19.4714 152.468 19.1277C152.252 18.7841 152.042 18.5838 151.84 18.5308H154.314L161.939 30.9005V23.6621C161.939 23.1338 161.926 22.5997 161.9 22.0597C161.872 21.5196 161.808 21.0149 161.708 20.5495C161.607 20.0841 161.46 19.6717 161.272 19.3123C161.083 18.953 160.818 18.6938 160.48 18.5308H163.785C163.5 18.6918 163.269 18.9628 163.086 19.3418C162.903 19.7208 162.754 20.1489 162.64 20.63C162.524 21.1092 162.448 21.6158 162.407 22.15C162.367 22.6841 162.346 23.1888 162.346 23.6601V31.5073L162.344 31.5054Z" fill="white"/>
<path d="M176.357 21.7101C176.263 21.3311 176.108 20.9737 175.892 20.6359C175.676 20.2982 175.409 19.9997 175.091 19.7424C174.772 19.4852 174.401 19.2829 173.975 19.1356C173.549 18.9864 173.08 18.9118 172.565 18.9118H171.348V30.6728C171.348 31.2678 171.426 31.745 171.581 32.1024C171.736 32.4598 171.909 32.666 172.098 32.721H168.651C168.84 32.6679 169.017 32.4598 169.178 32.1024C169.341 31.743 169.421 31.2678 169.421 30.6728V18.9118H168.204C167.689 18.9118 167.22 18.9864 166.796 19.1356C166.369 19.2849 165.998 19.4871 165.68 19.7424C165.362 19.9997 165.099 20.2962 164.889 20.6359C164.679 20.9737 164.52 21.3331 164.412 21.7101L164.675 18.9118V18.5269H176.092V18.9118L176.355 21.7101H176.357Z" fill="white"/>
<path d="M179.582 20.8384C179.554 21.5276 179.719 22.103 180.079 22.5625C180.438 23.0221 180.897 23.4305 181.457 23.7899C182.017 24.1493 182.629 24.487 183.291 24.8052C183.953 25.1233 184.568 25.4768 185.135 25.8695C185.703 26.2623 186.18 26.7277 186.565 27.2697C186.95 27.8117 187.142 28.4853 187.142 29.2983C187.142 29.8795 187.011 30.3862 186.746 30.8182C186.482 31.2502 186.135 31.6096 185.703 31.8924C185.271 32.1771 184.77 32.3892 184.202 32.5306C183.635 32.672 183.054 32.7447 182.459 32.7447C181.809 32.7447 181.174 32.6602 180.552 32.4913C179.929 32.3225 179.368 32.0731 178.869 31.7412C178.368 31.4093 177.966 30.9989 177.661 30.504C177.357 30.0111 177.206 29.4318 177.206 28.77C177.327 29.257 177.535 29.6792 177.834 30.0366C178.131 30.396 178.476 30.6984 178.869 30.9498C179.262 31.2012 179.684 31.3897 180.136 31.5173C180.587 31.645 181.045 31.7235 181.504 31.751C181.95 31.7648 182.396 31.7235 182.844 31.6293C183.289 31.535 183.692 31.3818 184.049 31.1737C184.407 30.9655 184.695 30.7004 184.911 30.3823C185.127 30.0641 185.237 29.6832 185.237 29.2374C185.237 28.6424 185.049 28.1416 184.67 27.7371C184.291 27.3306 183.822 26.9633 183.262 26.6315C182.7 26.3016 182.091 25.9795 181.437 25.6692C180.784 25.359 180.173 25.0172 179.613 24.6441C179.052 24.273 178.582 23.8331 178.203 23.3265C177.824 22.8198 177.636 22.2091 177.636 21.4923C177.636 20.9523 177.744 20.4927 177.96 20.1137C178.176 19.7347 178.466 19.4244 178.832 19.1809C179.197 18.9374 179.619 18.7627 180.098 18.6547C180.577 18.5466 181.082 18.4917 181.608 18.4917C182.486 18.4917 183.352 18.6311 184.204 18.908C185.057 19.1849 185.738 19.5815 186.253 20.0941V23.9666C186.023 23.1026 185.722 22.3485 185.349 21.7063C184.978 21.0642 184.576 20.5261 184.144 20.0941C183.712 19.6621 183.266 19.3361 182.804 19.1201C182.343 18.904 181.911 18.7941 181.506 18.7941C180.978 18.7941 180.532 18.9708 180.167 19.3223C179.802 19.6738 179.605 20.1805 179.58 20.8423L179.582 20.8384Z" fill="white"/>
<path d="M67.8865 50.0431C68.401 50.0431 68.8704 49.9685 69.2945 49.8193C69.7207 49.67 70.0918 49.4678 70.41 49.2105C70.7281 48.9533 70.9952 48.6567 71.2112 48.3189C71.4272 47.9812 71.5823 47.6218 71.6766 47.2448L71.4134 50.0431V50.428H62.0659C62.2544 50.375 62.4312 50.1669 62.5942 49.8095C62.7552 49.4501 62.8377 48.9748 62.8377 48.3798V38.2821C62.8377 37.6871 62.7552 37.2099 62.5942 36.8525C62.4312 36.4951 62.2564 36.2889 62.0659 36.2339H65.5123C65.3238 36.287 65.1471 36.4951 64.986 36.8525C64.8231 37.2119 64.7425 37.6871 64.7425 38.2821V50.0431H67.8865Z" fill="white"/>
<path d="M75.2879 48.3822C75.2879 48.9772 75.3685 49.4544 75.5314 49.8118C75.6925 50.1692 75.8692 50.3754 76.0577 50.4304H72.6113C72.7998 50.3774 72.9766 50.1692 73.1396 49.8118C73.3006 49.4524 73.3831 48.9772 73.3831 48.3822V38.2845C73.3831 37.6895 73.3006 37.2123 73.1396 36.8549C72.9766 36.4975 72.8018 36.2913 72.6113 36.2363H76.0577C75.8692 36.2893 75.6925 36.4975 75.5314 36.8549C75.3685 37.2142 75.2879 37.6895 75.2879 38.2845V48.3822Z" fill="white"/>
<path d="M90.3148 48.3822C90.3148 48.9772 90.3953 49.4544 90.5583 49.8118C90.7193 50.1692 90.8961 50.3754 91.0846 50.4304H87.6382C87.8267 50.3773 87.9995 50.1692 88.1546 49.8118C88.3098 49.4524 88.3883 48.9772 88.3883 48.3822V39.4804L84.8202 46.5382C84.9144 46.713 85.0322 46.8995 85.1736 47.0959C85.315 47.2923 85.4682 47.471 85.6292 47.634C85.7903 47.797 85.9532 47.9383 86.1162 48.0601C86.2773 48.1819 86.4265 48.2565 86.562 48.284H82.9114C83.0469 48.2427 83.1156 48.1092 83.1156 47.8775C83.1156 47.7282 83.0861 47.5436 83.0233 47.3198C82.9624 47.0959 82.8584 46.8504 82.7091 46.5794L79.1802 39.5845V45.303C79.1802 45.8293 79.194 46.3654 79.2195 46.9054C79.247 47.4474 79.3079 47.9501 79.4021 48.4155C79.4964 48.881 79.6378 49.2953 79.8283 49.6527C80.0168 50.0121 80.2819 50.2713 80.6197 50.4343H77.3146C77.5994 50.2713 77.835 50.0023 78.0236 49.6233C78.2121 49.2443 78.3653 48.8162 78.4792 48.335C78.5931 47.8559 78.6716 47.3492 78.7128 46.8151C78.7521 46.2809 78.7737 45.7782 78.7737 45.3049V38.7754L78.3888 38.0253C78.1453 37.552 77.9057 37.1494 77.6701 36.8175C77.4325 36.4876 77.2145 36.2932 77.0103 36.2402H79.4846L84.6159 46.1572L89.543 36.2402H91.0846C90.8961 36.2932 90.7193 36.5014 90.5583 36.8588C90.3953 37.2182 90.3148 37.6934 90.3148 38.2884V48.3861V48.3822Z" fill="white"/>
<path d="M95.1417 48.3822C95.1417 48.9772 95.2222 49.4544 95.3852 49.8118C95.5462 50.1692 95.723 50.3754 95.9115 50.4304H92.4651C92.6536 50.3774 92.8303 50.1692 92.9933 49.8118C93.1544 49.4524 93.2369 48.9772 93.2369 48.3822V38.2845C93.2369 37.6895 93.1544 37.2123 92.9933 36.8549C92.8303 36.4975 92.6556 36.2913 92.4651 36.2363H95.9115C95.723 36.2893 95.5462 36.4975 95.3852 36.8549C95.2222 37.2142 95.1417 37.6895 95.1417 38.2845V48.3822Z" fill="white"/>
<path d="M108.768 39.4172C108.674 39.0382 108.519 38.6808 108.303 38.343C108.087 38.0052 107.82 37.7068 107.501 37.4495C107.183 37.1922 106.812 36.99 106.386 36.8427C105.96 36.6934 105.491 36.6188 104.976 36.6188H103.759V48.3798C103.759 48.9748 103.837 49.452 103.992 49.8095C104.147 50.1669 104.32 50.373 104.509 50.428H101.062C101.251 50.375 101.428 50.1669 101.589 49.8095C101.752 49.4501 101.832 48.9748 101.832 48.3798V36.6188H100.615C100.1 36.6188 99.6307 36.6934 99.2065 36.8427C98.7804 36.9919 98.4092 37.1942 98.0911 37.4495C97.773 37.7068 97.5098 38.0033 97.2997 38.343C97.0896 38.6808 96.9305 39.0402 96.8225 39.4172L97.0857 36.6188V36.2339H108.503V36.6188L108.766 39.4172H108.768Z" fill="white"/>
<path d="M115.054 50.0431C115.569 50.0431 116.034 49.9685 116.452 49.8193C116.871 49.67 117.24 49.4678 117.558 49.2105C117.876 48.9533 118.143 48.6567 118.359 48.3189C118.575 47.9812 118.73 47.6218 118.825 47.2448L118.581 50.0431V50.428H109.475C109.664 50.375 109.84 50.1669 110.003 49.8095C110.164 49.4501 110.247 48.9748 110.247 48.3798V38.2821C110.247 37.6871 110.164 37.2099 110.003 36.8525C109.84 36.4951 109.666 36.2889 109.475 36.2339H118.581V36.6188L118.825 39.4172C118.73 39.0382 118.575 38.6808 118.359 38.343C118.143 38.0052 117.876 37.7068 117.558 37.4495C117.24 37.1922 116.873 36.99 116.452 36.8427C116.032 36.6954 115.567 36.6188 115.054 36.6188H112.154V43.1484H113.998C114.349 43.1484 114.671 43.1071 114.962 43.0266C115.252 42.9461 115.502 42.844 115.712 42.7222C115.92 42.6005 116.087 42.4728 116.209 42.3373C116.331 42.2018 116.405 42.0879 116.433 41.9937V44.6703C116.405 44.576 116.331 44.4621 116.209 44.3266C116.087 44.1911 115.922 44.0635 115.712 43.9417C115.502 43.82 115.252 43.7178 114.962 43.6373C114.671 43.5549 114.351 43.5156 113.998 43.5156H112.154V50.0451H115.054V50.0431Z" fill="white"/>
<path d="M125.234 36.2339C126.275 36.2339 127.181 36.4362 127.952 36.8427C128.722 37.2472 129.364 37.7853 129.879 38.455C130.391 39.1246 130.776 39.8806 131.033 40.727C131.291 41.5714 131.418 42.4414 131.418 43.333C131.418 44.2245 131.289 45.0944 131.033 45.9389C130.776 46.7833 130.391 47.5413 129.879 48.2109C129.364 48.8806 128.722 49.4167 127.952 49.8232C127.181 50.2297 126.275 50.432 125.234 50.432H120.225C120.413 50.3789 120.59 50.1708 120.753 49.8134C120.914 49.454 120.997 48.9788 120.997 48.3838V38.2861C120.997 37.691 120.914 37.2138 120.753 36.8564C120.59 36.499 120.415 36.2928 120.225 36.2379H125.234V36.2339ZM125.234 50.0431C125.937 50.0431 126.55 49.8507 127.071 49.4658C127.591 49.0809 128.027 48.5703 128.378 47.9341C128.73 47.2978 128.993 46.5751 129.17 45.7641C129.347 44.953 129.433 44.1283 129.433 43.2897C129.433 42.4512 129.345 41.6343 129.17 40.835C128.995 40.0377 128.734 39.3249 128.39 38.6965C128.045 38.0681 127.609 37.5634 127.082 37.1864C126.554 36.8073 125.939 36.6188 125.236 36.6188H122.905V50.0431H125.236H125.234Z" fill="white"/>
</g>
<defs>
<linearGradient id="paint0_linear_235_2" x1="1.25787" y1="7.04665" x2="51.9643" y2="46.051" gradientUnits="userSpaceOnUse">
<stop stop-color="#92643D"/>
<stop offset="0.05" stop-color="#986A42"/>
<stop offset="0.13" stop-color="#A97D51"/>
<stop offset="0.23" stop-color="#C59C6A"/>
<stop offset="0.33" stop-color="#EEC98D"/>
<stop offset="0.52" stop-color="#FFDFB2"/>
<stop offset="0.66" stop-color="#F1CA90"/>
<stop offset="1" stop-color="#92643D"/>
</linearGradient>
<linearGradient id="paint1_linear_235_2" x1="38.9936" y1="9.58552" x2="30.288" y2="25.1976" gradientUnits="userSpaceOnUse">
<stop stop-color="#FDEA86"/>
<stop offset="0.45" stop-color="#FFE45A"/>
<stop offset="1" stop-color="#B27A2B"/>
</linearGradient>
<linearGradient id="paint2_linear_235_2" x1="35.3057" y1="27.0475" x2="34.1549" y2="29.1114" gradientUnits="userSpaceOnUse">
<stop stop-color="#ECC68B"/>
<stop offset="0.45" stop-color="#CBA366"/>
<stop offset="1" stop-color="#92643D"/>
</linearGradient>
<linearGradient id="paint3_linear_235_2" x1="10.134" y1="33.8618" x2="40.922" y2="45.2222" gradientUnits="userSpaceOnUse">
<stop stop-color="#B28A4D"/>
<stop offset="0.11" stop-color="#B89053"/>
<stop offset="0.28" stop-color="#CAA366"/>
<stop offset="0.33" stop-color="#D3AC6F"/>
<stop offset="0.52" stop-color="#F6D889"/>
<stop offset="0.66" stop-color="#D8B278"/>
<stop offset="1" stop-color="#92643D"/>
</linearGradient>
<linearGradient id="paint4_linear_235_2" x1="19.1439" y1="35.4936" x2="29.4301" y2="33.3354" gradientUnits="userSpaceOnUse">
<stop stop-color="#92643D"/>
<stop offset="0.17" stop-color="#B48A5A"/>
<stop offset="0.32" stop-color="#D8B278"/>
<stop offset="0.81" stop-color="#FFDFB2"/>
</linearGradient>
<linearGradient id="paint5_linear_235_2" x1="32.4858" y1="11.5042" x2="27.5155" y2="20.7771" gradientUnits="userSpaceOnUse">
<stop stop-color="#92643D"/>
<stop offset="0.07" stop-color="#986A41"/>
<stop offset="0.18" stop-color="#A97D4E"/>
<stop offset="0.3" stop-color="#C59C63"/>
<stop offset="0.33" stop-color="#CFA76B"/>
<stop offset="0.52" stop-color="#F4D196"/>
<stop offset="0.66" stop-color="#D3AC6F"/>
<stop offset="1" stop-color="#92643D"/>
</linearGradient>
<linearGradient id="paint6_linear_235_2" x1="21.463" y1="37.548" x2="12.8126" y2="13.6921" gradientUnits="userSpaceOnUse">
<stop stop-color="#B27A2B"/>
<stop offset="0.07" stop-color="#B57E31"/>
<stop offset="0.16" stop-color="#BE8C44"/>
<stop offset="0.28" stop-color="#CDA363"/>
<stop offset="0.33" stop-color="#D6B075"/>
<stop offset="0.52" stop-color="#FFDFB2"/>
<stop offset="0.66" stop-color="#D7B075"/>
<stop offset="1" stop-color="#92643D"/>
</linearGradient>
<linearGradient id="paint7_linear_235_2" x1="20.6952" y1="30.6235" x2="31.7374" y2="57.2659" gradientUnits="userSpaceOnUse">
<stop stop-color="#92643D"/>
<stop offset="0.08" stop-color="#986A41"/>
<stop offset="0.2" stop-color="#A97D4C"/>
<stop offset="0.33" stop-color="#C39A5E"/>
<stop offset="0.52" stop-color="#F3CF94"/>
<stop offset="0.66" stop-color="#C8A165"/>
<stop offset="1" stop-color="#92643D"/>
</linearGradient>
<clipPath id="clip0_235_2">
<rect width="188" height="51" fill="white"/>
</clipPath>
</defs>
</svg>
