<svg width="332" height="90" viewBox="0 0 332 90" fill="none" xmlns="http://www.w3.org/2000/svg">
<path d="M88.9577 40.7796C88.9577 40.7796 89.041 26.4533 75.2629 13.0593C70.7304 8.53338 60.0041 1.21431 46.2537 1.21777C43.8989 1.21777 39.5503 1.55393 39.4669 1.54353C18.9853 4.32284 9.69133 19.1655 9.69133 19.1655C15.8296 11.2815 28.8968 8.86608 28.8968 8.86608C56.4044 4.59662 67.5848 24.6375 67.5848 24.6375C79.3099 42.3807 71.8055 57.8192 71.8055 57.8192C65.8856 45.0595 53.7756 43.5832 53.7756 43.5832C55.8425 43.0425 57.3372 41.2197 57.3372 41.2197C54.1051 42.086 46.2676 41.2266 46.2676 41.2266C34.1021 40.9529 33.1727 47.5234 33.1727 47.5234C27.3639 53.9311 32.5693 57.1608 32.5693 57.1608C31.7474 52.1948 37.7746 52.0146 37.7746 52.0146C49.8292 52.4513 48.8443 64.0606 48.8443 64.0606C46.1046 78.5185 28.4597 73.4798 28.4597 73.4798C12.327 67.7999 14.1025 49.4953 14.1025 49.4953C15.3094 23.9791 38.808 22.0522 38.808 22.0522C63.687 20.2986 68.4588 40.7346 68.4588 40.7346C63.8327 17.6995 46.7566 12.9449 36.6718 12.1999C36.6649 12.2033 34.272 11.9226 31.9554 12.1063C31.8964 12.1063 31.8341 12.1097 31.7751 12.1132C31.7751 12.1132 24.4022 12.6608 18.2606 16.7535C18.2537 16.7569 18.2466 16.7639 18.2397 16.7673C16.4919 17.8312 14.973 18.9055 13.6552 19.9555C13.6552 19.9555 11.5848 21.5704 8.98387 24.4329C8.22092 25.3271 7.62098 26.1415 7.1528 26.8449C7.1528 26.8449 4.72873 29.9395 3.10574 35.7165C2.32197 38.0453 1.94397 40.745 1.79139 43.3024C1.77059 43.604 1.75671 43.8812 1.74977 44.1445C1.65961 46.2793 1.71162 48.272 1.79833 49.8106C1.79833 49.8211 2.67917 55.9723 3.81318 59.2402C5.09633 62.5566 7.23951 66.4656 10.8045 69.9484C37.2648 91.6458 52.9745 74.9699 52.9745 74.9699C61.7415 64.8959 48.9552 51.0235 48.9552 51.0235C58.8909 56.3535 58.7452 66.6493 58.7452 66.6493C59.4561 77.7908 48.8095 81.8349 48.8095 81.8349C29.5175 89.7085 13.3361 76.214 13.3361 76.214C19.3945 82.7083 27.2876 86.1876 33.6408 88.0416C48.1298 92.2036 66.1389 86.6729 74.9231 77.8359C78.8974 73.8124 81.6058 69.9276 81.6058 69.9276C83.3953 67.3216 84.3281 65.471 84.3281 65.471C90.9137 53.8202 88.9577 40.7761 88.9577 40.7761V40.7796ZM41.8633 45.7838C41.7662 46.0229 40.1606 47.3259 37.0221 46.8788C37.0221 46.8788 40.2333 45.2153 41.1732 44.1758C41.5304 43.7806 42.0713 45.2778 41.8668 45.7838H41.8633Z" fill="url(#paint0_linear_235_32)"/>
<path d="M53.7756 43.5829L54.223 43.5171C54.0773 43.5481 53.9316 43.569 53.7756 43.5829Z" fill="url(#paint1_linear_235_32)"/>
<path d="M48.7402 45.0802C51.3168 44.6505 53.7755 43.583 53.7755 43.583C53.7755 43.583 65.8856 45.0629 71.8054 57.8192C63.2638 46.6153 48.7402 45.0802 48.7402 45.0802Z" fill="url(#paint2_linear_235_32)"/>
<path d="M30.5403 78.4182C48.9793 83.301 58.7416 69.1272 52.735 56.2876C52.735 56.2876 52.7421 56.2947 52.7454 56.3015C55.6446 61.2641 58.322 68.8258 52.9709 74.9769C52.9709 74.9769 37.2612 91.6493 10.8009 69.9554C7.23588 66.4728 5.0927 62.5636 3.80957 59.2472C3.80957 59.2472 6.14696 64.7677 11.5881 69.3387C16.0444 73.0848 22.6578 76.332 30.5438 78.4182H30.5403Z" fill="url(#paint3_linear_235_32)"/>
<path d="M48.8442 64.0605C48.8442 64.0605 49.8292 52.4513 37.7746 52.0145C37.7746 52.0145 31.7474 52.1982 32.5693 57.1607C32.5693 57.1607 31.1786 54.6864 32.9751 51.9245C34.9621 48.8678 43.8956 47.9565 48.3483 52.9433C52.8011 57.9301 51.8994 71.0054 41.4056 73.3134C44.8215 72.0485 47.842 69.3697 48.8477 64.0605H48.8442Z" fill="url(#paint4_linear_235_32)"/>
<path d="M71.8057 57.8191C71.8057 57.8191 79.3136 42.3771 67.5852 24.6373C67.5852 24.6373 56.4079 4.59647 28.897 8.86593L28.9906 8.83474C28.9906 8.83474 29.2645 8.76195 29.268 8.76195C38.6661 6.79704 56.3629 6.15592 68.3342 22.0833C82.7435 41.2542 71.8021 57.8191 71.8021 57.8191H71.8057Z" fill="url(#paint5_linear_235_32)"/>
<path d="M11.5915 49.4188C11.914 28.2794 31.2755 19.4044 44.1311 22.0174C44.1346 22.0174 44.138 22.0174 44.1415 22.0174C42.4769 21.9133 40.7013 21.9168 38.8113 22.0484C38.8113 22.0484 15.3091 23.9753 14.1058 49.4915C14.1058 49.4915 12.3684 67.4531 28.019 73.3098C23.2714 71.8126 11.3349 66.3581 11.595 49.4118L11.5915 49.4188Z" fill="url(#paint6_linear_235_32)"/>
<path d="M28.1614 83.3039C34.0152 84.7247 41.1661 84.9602 48.8093 81.838C48.8093 81.838 59.4559 77.7938 58.7449 66.6523C58.7449 66.6523 58.8802 56.9316 49.7665 51.4908C49.489 51.2967 49.2187 51.1374 48.955 51.0264C48.955 51.0264 67.4078 58.751 59.6362 76.0714C54.8471 86.7415 37.9201 85.9515 28.1647 83.3039H28.1614Z" fill="url(#paint7_linear_235_32)"/>
<path d="M123.429 26.4947C123.644 26.4462 123.824 26.2798 123.966 25.9921C124.112 25.708 124.182 25.3233 124.182 24.8486C124.182 24.3739 124.098 23.8713 123.932 23.3446L122.07 17.4394H113.799C113.514 18.3231 113.285 19.2102 113.119 20.1044C112.952 20.9986 112.869 21.8509 112.869 22.662C112.869 23.5456 112.98 24.3254 113.209 25.008C113.434 25.6872 113.823 26.1827 114.374 26.4912H108.073C108.454 26.3977 108.825 26.1654 109.183 25.7947C109.543 25.4239 109.911 24.8832 110.292 24.1659C110.674 23.4485 111.08 22.5372 111.51 21.4283C111.94 20.3193 112.418 18.9886 112.942 17.4394L117.527 3.4112C117.263 2.86367 116.979 2.41661 116.666 2.07008C116.354 1.72352 116.07 1.5156 115.806 1.44629H120.748L127.514 23.3481C127.802 24.256 128.152 24.9838 128.572 25.5314C128.988 26.0788 129.376 26.4012 129.737 26.4983H123.436L123.429 26.4947ZM121.855 16.7602L117.988 4.59294L114.01 16.7602H121.855Z" fill="white"/>
<path d="M149.75 1.44634C149.248 1.73051 148.831 2.20874 148.498 2.87758C148.166 3.54642 147.895 4.30189 147.694 5.15093C147.489 5.99651 147.354 6.89059 147.281 7.83319C147.208 8.77581 147.174 9.66644 147.174 10.4981V19.6226C147.174 20.7664 146.941 21.7678 146.477 22.6272C146.012 23.4866 145.398 24.204 144.632 24.7759C143.869 25.3477 142.995 25.7774 142.017 26.0651C141.039 26.3527 140.033 26.4948 139.007 26.4948C137.98 26.4948 136.978 26.3527 135.996 26.0651C135.015 25.7774 134.145 25.3477 133.382 24.7759C132.619 24.204 131.998 23.4866 131.519 22.6272C131.041 21.7678 130.805 20.7664 130.805 19.6226V5.05735C130.805 4.00731 130.659 3.16521 130.375 2.53449C130.087 1.90378 129.779 1.5399 129.442 1.44287H135.528C135.195 1.53644 134.883 1.90378 134.599 2.53449C134.311 3.16867 134.169 4.00731 134.169 5.05735V19.6226C134.169 20.5758 134.342 21.411 134.689 22.1284C135.036 22.8422 135.494 23.4383 136.069 23.9165C136.642 24.3948 137.293 24.7516 138.022 24.9907C138.75 25.2298 139.496 25.3477 140.259 25.3477C141.022 25.3477 141.774 25.2298 142.513 24.9907C143.251 24.7516 143.914 24.3948 144.5 23.9165C145.086 23.4383 145.558 22.8422 145.915 22.1284C146.272 21.411 146.452 20.5791 146.452 19.6226V10.4981C146.452 9.56594 146.428 8.62332 146.379 7.67033C146.331 6.71732 146.224 5.82669 146.057 5.00538C145.89 4.18406 145.641 3.45632 145.304 2.82214C144.971 2.18795 144.503 1.73051 143.907 1.44287H149.743L149.75 1.44634Z" fill="white"/>
<path d="M171.775 7.06381C171.609 6.39498 171.335 5.76426 170.953 5.16819C170.572 4.57215 170.1 4.0454 169.538 3.59141C168.976 3.13744 168.321 2.78049 167.569 2.52059C166.816 2.25721 165.987 2.12552 165.079 2.12552H162.928V22.8803C162.928 23.9303 163.067 24.7724 163.341 25.4031C163.615 26.0338 163.92 26.3977 164.253 26.4947H158.167C158.5 26.4012 158.812 26.0338 159.096 25.4031C159.384 24.7689 159.526 23.9303 159.526 22.8803V2.12552H157.376C156.468 2.12552 155.639 2.25721 154.89 2.52059C154.137 2.78397 153.482 3.1409 152.92 3.59141C152.358 4.0454 151.893 4.56867 151.522 5.16819C151.151 5.76426 150.87 6.39844 150.68 7.06381L151.144 2.12552V1.44629H171.307V2.12552L171.772 7.06381H171.775Z" fill="white"/>
<path d="M114.336 54.1283C114.336 55.1783 114.478 56.0204 114.766 56.6511C115.05 57.2818 115.363 57.6457 115.696 57.7428H109.609C109.942 57.649 110.254 57.2818 110.542 56.6511C110.827 56.0169 110.972 55.1783 110.972 54.1283V36.3088C110.972 35.2586 110.827 34.4167 110.542 33.7858C110.254 33.1551 109.946 32.7912 109.609 32.6943H115.696C115.363 32.7879 115.05 33.1551 114.766 33.7858C114.478 34.42 114.336 35.2586 114.336 36.3088V54.1283Z" fill="white"/>
<path d="M135.927 55.5975C136.309 56.0999 136.715 56.5573 137.145 56.9768C137.575 57.3961 137.967 57.6525 138.327 57.7461H133.278L121.21 38.1349V48.6908C121.21 49.6196 121.234 50.5656 121.279 51.5186C121.327 52.4751 121.435 53.3622 121.601 54.1836C121.768 55.0049 122.017 55.7361 122.354 56.3668C122.687 57.001 123.155 57.4584 123.751 57.7461H117.915C118.418 57.4584 118.834 56.9837 119.167 56.3149C119.5 55.6461 119.77 54.8906 119.971 54.0414C120.173 53.1959 120.311 52.3018 120.384 51.3592C120.454 50.4165 120.492 49.5294 120.492 48.6942V36.9568L119.812 35.8478C119.313 35.0611 118.869 34.3611 118.487 33.7545C118.106 33.1482 117.735 32.7947 117.377 32.7012H121.747L135.213 54.5301V41.7564C135.213 40.8241 135.189 39.8816 135.144 38.9286C135.095 37.9755 134.981 37.0849 134.804 36.2636C134.627 35.4423 134.367 34.7145 134.034 34.0803C133.701 33.4462 133.233 32.9888 132.636 32.7012H138.473C137.97 32.9853 137.561 33.4635 137.238 34.1323C136.916 34.8012 136.652 35.5566 136.451 36.4056C136.247 37.2513 136.111 38.1453 136.038 39.088C135.969 40.0305 135.931 40.9212 135.931 41.7529V55.6009L135.927 55.5975Z" fill="white"/>
<path d="M161.427 32.6943C160.855 32.8364 160.321 33.2488 159.832 33.928C159.343 34.6073 158.895 35.4009 158.489 36.3088C158.084 37.2167 157.713 38.1593 157.38 39.1366C157.047 40.1139 156.773 40.9872 156.558 41.7496L151.758 57.7461H148.283L141.909 35.8443C141.646 34.9364 141.306 34.2086 140.89 33.661C140.47 33.1136 140.085 32.7912 139.725 32.6943H145.922C145.707 32.7427 145.526 32.9091 145.384 33.1932C145.242 33.4809 145.169 33.862 145.169 34.3403C145.169 34.8185 145.252 35.3176 145.419 35.8443L151.401 56.457L155.698 41.7496C155.961 40.8416 156.176 39.937 156.343 39.0291C156.509 38.1212 156.593 37.2653 156.593 36.4509C156.593 35.5915 156.478 34.8289 156.253 34.1601C156.027 33.4913 155.649 33.0026 155.126 32.6943H161.427Z" fill="white"/>
<path d="M172.562 57.0635C173.471 57.0635 174.293 56.9317 175.031 56.6684C175.77 56.4051 176.422 56.0481 176.984 55.594C177.546 55.1402 178.017 54.6167 178.399 54.0208C178.78 53.4247 179.054 52.7905 179.22 52.1252L178.791 57.0635V57.7428H162.71C163.043 57.649 163.355 57.2818 163.643 56.6511C163.927 56.0169 164.073 55.1783 164.073 54.1283V36.3088C164.073 35.2586 163.927 34.4167 163.643 33.7858C163.355 33.1551 163.046 32.7912 162.71 32.6943H178.791V33.3736L179.22 38.3117C179.054 37.6429 178.78 37.0122 178.399 36.4161C178.017 35.8202 177.546 35.2934 176.984 34.8393C176.422 34.3855 175.774 34.0285 175.031 33.7685C174.289 33.5086 173.467 33.3736 172.562 33.3736H167.44V44.8962H170.697C171.317 44.8962 171.886 44.8233 172.399 44.6813C172.913 44.5392 173.353 44.359 173.724 44.1441C174.092 43.9293 174.386 43.704 174.601 43.4649C174.816 43.2257 174.948 43.0247 174.997 42.8585V47.5819C174.948 47.4155 174.816 47.2145 174.601 46.9754C174.386 46.7363 174.095 46.5111 173.724 46.2962C173.353 46.0814 172.913 45.9012 172.399 45.7592C171.886 45.6136 171.321 45.5442 170.697 45.5442H167.44V57.0669H172.562V57.0635Z" fill="white"/>
<path d="M185.779 36.7731C185.731 37.9893 186.022 39.0047 186.656 39.8156C187.29 40.6267 188.103 41.3474 189.092 41.9816C190.079 42.6158 191.161 43.2118 192.33 43.7733C193.498 44.3347 194.584 44.9585 195.587 45.6515C196.588 46.3447 197.43 47.166 198.11 48.1224C198.79 49.0789 199.131 50.2676 199.131 51.7023C199.131 52.728 198.898 53.6221 198.43 54.3845C197.966 55.1468 197.351 55.7811 196.588 56.2801C195.825 56.7825 194.94 57.1568 193.939 57.4064C192.936 57.6559 191.91 57.7842 190.859 57.7842C189.711 57.7842 188.592 57.6351 187.492 57.337C186.393 57.0391 185.401 56.599 184.52 56.0133C183.637 55.4276 182.925 54.7034 182.388 53.83C181.849 52.9602 181.583 51.9379 181.583 50.77C181.798 51.6294 182.166 52.3745 182.692 53.0052C183.216 53.6394 183.827 54.1731 184.52 54.6167C185.214 55.0604 185.959 55.393 186.757 55.6182C187.555 55.8435 188.362 55.9821 189.175 56.0306C189.96 56.055 190.748 55.9821 191.539 55.8158C192.327 55.6494 193.037 55.3791 193.669 55.0118C194.299 54.6444 194.81 54.1766 195.191 53.6152C195.573 53.0537 195.767 52.3815 195.767 51.5948C195.767 50.5448 195.433 49.6611 194.764 48.9472C194.095 48.2299 193.266 47.5817 192.277 46.9962C191.287 46.414 190.211 45.8456 189.056 45.298C187.901 44.7506 186.822 44.1474 185.835 43.489C184.843 42.8341 184.014 42.0578 183.345 41.1638C182.676 40.2697 182.342 39.192 182.342 37.927C182.342 36.9741 182.533 36.163 182.914 35.4942C183.296 34.8254 183.81 34.2778 184.454 33.8481C185.099 33.4184 185.844 33.1101 186.692 32.9195C187.538 32.7287 188.428 32.6318 189.358 32.6318C190.909 32.6318 192.438 32.8778 193.943 33.3665C195.447 33.8551 196.652 34.555 197.559 35.4596V42.2934C197.153 40.7687 196.623 39.438 195.965 38.3047C195.306 37.1715 194.598 36.222 193.835 35.4596C193.072 34.6972 192.284 34.122 191.47 33.7408C190.654 33.3594 189.892 33.1655 189.178 33.1655C188.244 33.1655 187.458 33.4773 186.812 34.0976C186.167 34.7179 185.821 35.6121 185.775 36.78L185.779 36.7731Z" fill="white"/>
<path d="M221.765 38.3117C221.599 37.6429 221.326 37.0122 220.942 36.4161C220.561 35.8202 220.089 35.2934 219.528 34.8393C218.966 34.3855 218.311 34.0285 217.559 33.7685C216.807 33.5052 215.977 33.3736 215.069 33.3736H212.918V54.1283C212.918 55.1783 213.057 56.0204 213.331 56.6511C213.605 57.2818 213.91 57.6457 214.244 57.7428H208.157C208.491 57.649 208.801 57.2818 209.086 56.6511C209.374 56.0169 209.517 55.1783 209.517 54.1283V33.3736H207.366C206.458 33.3736 205.63 33.5052 204.879 33.7685C204.127 34.032 203.472 34.3888 202.91 34.8393C202.349 35.2934 201.884 35.8166 201.513 36.4161C201.141 37.0122 200.86 37.6465 200.669 38.3117L201.134 33.3736V32.6943H221.297V33.3736L221.762 38.3117H221.765Z" fill="white"/>
<path d="M246.12 54.1281C246.12 55.1781 246.263 56.0204 246.551 56.6511C246.835 57.2818 247.148 57.6456 247.48 57.7425H241.394C241.726 57.649 242.032 57.2818 242.305 56.6511C242.579 56.0168 242.719 55.1781 242.719 54.1281V38.4192L236.418 50.8739C236.584 51.1824 236.792 51.5117 237.041 51.8583C237.292 52.2047 237.562 52.5201 237.846 52.8077C238.131 53.0953 238.418 53.3449 238.706 53.5598C238.991 53.7746 239.254 53.9062 239.494 53.9548H233.046C233.287 53.8821 233.407 53.6465 233.407 53.2374C233.407 52.9741 233.355 52.6483 233.244 52.2532C233.136 51.8583 232.953 51.4251 232.69 50.9468L226.458 38.6029V48.6942C226.458 49.6229 226.482 50.569 226.526 51.5221C226.576 52.4786 226.684 53.3657 226.85 54.187C227.016 55.0083 227.265 55.7396 227.602 56.3703C227.934 57.0045 228.404 57.4619 228.999 57.7496H223.162C223.666 57.4619 224.082 56.9871 224.414 56.3182C224.748 55.6494 225.018 54.8939 225.22 54.0449C225.421 53.1993 225.559 52.3053 225.633 51.3626C225.702 50.4201 225.739 49.5329 225.739 48.6977V37.1751L225.061 35.8512C224.63 35.0161 224.206 34.3056 223.791 33.7199C223.371 33.1378 222.986 32.7947 222.625 32.7012H226.994L236.057 50.2018L244.758 32.7012H247.48C247.148 32.7947 246.835 33.1619 246.551 33.7926C246.263 34.4269 246.12 35.2655 246.12 36.3156V54.1351V54.1281Z" fill="white"/>
<path d="M259.763 57.0635C260.671 57.0635 261.494 56.9317 262.232 56.6684C262.97 56.4051 263.624 56.0481 264.185 55.594C264.747 55.1402 265.218 54.6167 265.6 54.0208C265.981 53.4247 266.255 52.7905 266.421 52.1252L265.992 57.0635V57.7428H249.911C250.243 57.649 250.556 57.2818 250.844 56.6511C251.128 56.0169 251.274 55.1783 251.274 54.1283V36.3088C251.274 35.2586 251.128 34.4167 250.844 33.7858C250.556 33.1551 250.247 32.7912 249.911 32.6943H265.992V33.3736L266.421 38.3117C266.255 37.6429 265.981 37.0122 265.6 36.4161C265.218 35.8202 264.747 35.2934 264.185 34.8393C263.624 34.3855 262.974 34.0285 262.232 33.7685C261.49 33.5086 260.668 33.3736 259.763 33.3736H254.64V44.8962H257.897C258.518 44.8962 259.087 44.8233 259.601 44.6813C260.113 44.5392 260.555 44.359 260.925 44.1441C261.293 43.9293 261.588 43.704 261.803 43.4649C262.017 43.2257 262.149 43.0247 262.197 42.8585V47.5819C262.149 47.4155 262.017 47.2145 261.803 46.9754C261.588 46.7363 261.296 46.5111 260.925 46.2962C260.555 46.0814 260.113 45.9012 259.601 45.7592C259.087 45.6136 258.522 45.5442 257.897 45.5442H254.64V57.0669H259.763V57.0635Z" fill="white"/>
<path d="M286.693 55.5975C287.074 56.0999 287.48 56.5573 287.909 56.9768C288.34 57.3961 288.731 57.6525 289.093 57.7461H284.042L271.975 38.1349V48.6908C271.975 49.6196 271.998 50.5656 272.044 51.5186C272.092 52.4751 272.199 53.3622 272.365 54.1836C272.533 55.0049 272.782 55.7361 273.12 56.3668C273.452 57.001 273.92 57.4584 274.516 57.7461H268.68C269.183 57.4584 269.598 56.9837 269.932 56.3149C270.264 55.6461 270.536 54.8906 270.735 54.0414C270.937 53.1959 271.076 52.3018 271.149 51.3592C271.218 50.4165 271.256 49.5294 271.256 48.6942V36.9568L270.577 35.8478C270.077 35.0611 269.634 34.3611 269.252 33.7545C268.871 33.1482 268.5 32.7947 268.143 32.7012H272.512L285.977 54.5301V41.7564C285.977 40.8241 285.955 39.8816 285.909 38.9286C285.859 37.9755 285.746 37.0849 285.57 36.2636C285.391 35.4423 285.132 34.7145 284.8 34.0803C284.466 33.4462 283.998 32.9888 283.401 32.7012H289.237C288.734 32.9853 288.326 33.4635 288.003 34.1323C287.68 34.8012 287.417 35.5566 287.215 36.4056C287.011 37.2513 286.876 38.1453 286.804 39.088C286.733 40.0305 286.696 40.9212 286.696 41.7529V55.6009L286.693 55.5975Z" fill="white"/>
<path d="M311.439 38.3117C311.273 37.6429 310.999 37.0122 310.618 36.4161C310.236 35.8202 309.765 35.2934 309.203 34.8393C308.64 34.3855 307.985 34.0285 307.233 33.7685C306.48 33.5052 305.652 33.3736 304.743 33.3736H302.593V54.1283C302.593 55.1783 302.731 56.0204 303.005 56.6511C303.279 57.2818 303.584 57.6457 303.918 57.7428H297.831C298.164 57.649 298.477 57.2818 298.761 56.6511C299.049 56.0169 299.19 55.1783 299.19 54.1283V33.3736H297.041C296.132 33.3736 295.304 33.5052 294.555 33.7685C293.801 34.032 293.146 34.3888 292.584 34.8393C292.022 35.2934 291.558 35.8166 291.187 36.4161C290.816 37.0122 290.535 37.6465 290.345 38.3117L290.809 33.3736V32.6943H310.971V33.3736L311.436 38.3117H311.439Z" fill="white"/>
<path d="M317.134 36.7731C317.085 37.9893 317.376 39.0047 318.012 39.8156C318.646 40.6267 319.456 41.3474 320.445 41.9816C321.434 42.6158 322.515 43.2118 323.684 43.7733C324.853 44.3347 325.939 44.9585 326.941 45.6515C327.944 46.3447 328.786 47.166 329.466 48.1224C330.146 49.0789 330.485 50.2676 330.485 51.7023C330.485 52.728 330.253 53.6221 329.785 54.3845C329.319 55.1468 328.706 55.7811 327.944 56.2801C327.181 56.7825 326.296 57.1568 325.293 57.4064C324.292 57.6559 323.266 57.7842 322.215 57.7842C321.067 57.7842 319.946 57.6351 318.847 57.337C317.747 57.0391 316.756 56.599 315.875 56.0133C314.99 55.4276 314.28 54.7034 313.742 53.83C313.205 52.9602 312.938 51.9379 312.938 50.77C313.152 51.6294 313.519 52.3745 314.047 53.0052C314.572 53.6394 315.181 54.1731 315.875 54.6167C316.569 55.0604 317.314 55.393 318.113 55.6182C318.909 55.8435 319.718 55.9821 320.528 56.0306C321.316 56.055 322.104 55.9821 322.895 55.8158C323.681 55.6494 324.392 55.3791 325.023 55.0118C325.655 54.6444 326.163 54.1766 326.545 53.6152C326.926 53.0537 327.121 52.3815 327.121 51.5948C327.121 50.5448 326.789 49.6611 326.119 48.9472C325.45 48.2299 324.622 47.5817 323.633 46.9962C322.64 46.414 321.565 45.8456 320.41 45.298C319.257 44.7506 318.178 44.1474 317.189 43.489C316.198 42.8341 315.368 42.0578 314.699 41.1638C314.03 40.2697 313.698 39.192 313.698 37.927C313.698 36.9741 313.888 36.163 314.27 35.4942C314.651 34.8254 315.163 34.2778 315.81 33.8481C316.454 33.4184 317.2 33.1101 318.045 32.9195C318.891 32.7287 319.783 32.6318 320.712 32.6318C322.263 32.6318 323.792 32.8778 325.296 33.3665C326.803 33.8551 328.005 34.555 328.915 35.4596V42.2934C328.509 40.7687 327.977 39.438 327.318 38.3047C326.663 37.1715 325.953 36.222 325.19 35.4596C324.428 34.6972 323.64 34.122 322.824 33.7408C322.01 33.3594 321.247 33.1655 320.532 33.1655C319.599 33.1655 318.812 33.4773 318.167 34.0976C317.523 34.7179 317.175 35.6121 317.131 36.78L317.134 36.7731Z" fill="white"/>
<path d="M119.885 88.3116C120.793 88.3116 121.622 88.1799 122.371 87.9166C123.124 87.6531 123.779 87.2963 124.341 86.8423C124.903 86.3884 125.374 85.865 125.756 85.2689C126.137 84.6729 126.411 84.0387 126.578 83.3734L126.113 88.3116V88.9908H109.606C109.939 88.8973 110.251 88.53 110.539 87.8993C110.823 87.2651 110.969 86.4263 110.969 85.3763V67.5569C110.969 66.5069 110.823 65.6647 110.539 65.034C110.251 64.4033 109.942 64.0394 109.606 63.9424H115.692C115.359 64.0361 115.047 64.4033 114.762 65.034C114.475 65.6683 114.332 66.5069 114.332 67.5569V88.3116H119.885Z" fill="white"/>
<path d="M132.955 85.3802C132.955 86.4302 133.098 87.2723 133.385 87.9031C133.67 88.5338 133.982 88.8976 134.315 88.9947H128.229C128.561 88.9012 128.874 88.5338 129.161 87.9031C129.446 87.2688 129.591 86.4302 129.591 85.3802V67.5608C129.591 66.5108 129.446 65.6686 129.161 65.0379C128.874 64.4072 128.565 64.0433 128.229 63.9463H134.315C133.982 64.0398 133.67 64.4072 133.385 65.0379C133.098 65.672 132.955 66.5108 132.955 67.5608V85.3802Z" fill="white"/>
<path d="M159.492 85.3802C159.492 86.4302 159.634 87.2723 159.922 87.903C160.206 88.5337 160.519 88.8976 160.851 88.9946H154.765C155.098 88.9009 155.403 88.5337 155.677 87.903C155.951 87.2688 156.09 86.4302 156.09 85.3802V69.6711L149.789 82.1261C149.955 82.4345 150.163 82.7637 150.413 83.1102C150.663 83.4568 150.933 83.7722 151.217 84.0598C151.502 84.3475 151.79 84.5968 152.077 84.8118C152.362 85.0267 152.625 85.1584 152.865 85.2069H146.418C146.657 85.134 146.779 84.8984 146.779 84.4895C146.779 84.2261 146.726 83.9003 146.616 83.5054C146.508 83.1102 146.324 82.677 146.061 82.1988L139.829 69.8548V79.9463C139.829 80.8751 139.853 81.8211 139.898 82.7741C139.947 83.7305 140.054 84.6176 140.221 85.4389C140.387 86.2604 140.637 86.9915 140.973 87.6222C141.306 88.2565 141.774 88.7139 142.371 89.0015H136.534C137.037 88.7139 137.453 88.2392 137.786 87.5704C138.119 86.9015 138.39 86.1461 138.591 85.2969C138.792 84.4514 138.931 83.5572 139.003 82.6147C139.073 81.672 139.111 80.7849 139.111 79.9496V68.427L138.431 67.1033C138.001 66.2681 137.578 65.5576 137.162 64.9719C136.742 64.3897 136.357 64.0467 135.997 63.9531H140.366L149.428 81.4537L158.129 63.9531H160.851C160.519 64.0467 160.206 64.4141 159.922 65.0448C159.634 65.679 159.492 66.5176 159.492 67.5676V85.3871V85.3802Z" fill="white"/>
<path d="M168.016 85.3802C168.016 86.4302 168.158 87.2723 168.446 87.9031C168.731 88.5338 169.043 88.8976 169.376 88.9947H163.29C163.622 88.9012 163.934 88.5338 164.222 87.9031C164.507 87.2688 164.653 86.4302 164.653 85.3802V67.5608C164.653 66.5108 164.507 65.6686 164.222 65.0379C163.934 64.4072 163.626 64.0433 163.29 63.9463H169.376C169.043 64.0398 168.731 64.4072 168.446 65.0379C168.158 65.672 168.016 66.5108 168.016 67.5608V85.3802Z" fill="white"/>
<path d="M192.08 69.56C191.914 68.8911 191.64 68.2604 191.258 67.6643C190.877 67.0682 190.405 66.5416 189.842 66.0876C189.281 65.6335 188.625 65.2767 187.873 65.0167C187.121 64.7533 186.293 64.6216 185.383 64.6216H183.234V85.3763C183.234 86.4263 183.372 87.2684 183.645 87.8993C183.919 88.53 184.225 88.8937 184.558 88.9908H178.471C178.805 88.8973 179.117 88.53 179.402 87.8993C179.69 87.2651 179.831 86.4263 179.831 85.3763V64.6216H177.682C176.772 64.6216 175.944 64.7533 175.194 65.0167C174.442 65.28 173.786 65.637 173.225 66.0876C172.663 66.5416 172.198 67.0649 171.827 67.6643C171.456 68.2604 171.175 68.8947 170.984 69.56L171.449 64.6216V63.9424H191.612V64.6216L192.076 69.56H192.08Z" fill="white"/>
<path d="M203.18 88.3116C204.09 88.3116 204.911 88.1799 205.649 87.9166C206.389 87.6531 207.041 87.2963 207.602 86.8423C208.164 86.3884 208.635 85.865 209.017 85.2689C209.398 84.6729 209.672 84.0387 209.84 83.3734L209.409 88.3116V88.9908H193.328C193.662 88.8973 193.973 88.53 194.261 87.8993C194.545 87.2651 194.691 86.4263 194.691 85.3763V67.5569C194.691 66.5069 194.545 65.6647 194.261 65.034C193.973 64.4033 193.665 64.0394 193.328 63.9424H209.409V64.6216L209.84 69.56C209.672 68.8911 209.398 68.2604 209.017 67.6643C208.635 67.0682 208.164 66.5416 207.602 66.0876C207.041 65.6335 206.393 65.2767 205.649 65.0167C204.908 64.7568 204.086 64.6216 203.18 64.6216H198.059V76.1444H201.316C201.935 76.1444 202.504 76.0716 203.018 75.9295C203.53 75.7874 203.972 75.6073 204.342 75.3923C204.71 75.1776 205.005 74.9522 205.22 74.7131C205.436 74.474 205.566 74.273 205.616 74.1067V78.8302C205.566 78.6637 205.436 78.4627 205.22 78.2236C205.005 77.9845 204.713 77.7593 204.342 77.5444C203.972 77.3296 203.53 77.1493 203.018 77.0072C202.504 76.8618 201.939 76.7924 201.316 76.7924H198.059V88.3151H203.18V88.3116Z" fill="white"/>
<path d="M221.158 63.9424C222.996 63.9424 224.596 64.2994 225.958 65.0167C227.318 65.7306 228.451 66.6801 229.361 67.862C230.265 69.0436 230.945 70.3777 231.399 71.8714C231.854 73.3615 232.079 74.8968 232.079 76.4702C232.079 78.0434 231.851 79.5786 231.399 81.0689C230.945 82.559 230.265 83.8966 229.361 85.0783C228.451 86.2601 227.318 87.2061 225.958 87.9235C224.596 88.6409 222.996 88.9979 221.158 88.9979H212.312C212.644 88.9041 212.957 88.5369 213.245 87.9062C213.529 87.272 213.676 86.4334 213.676 85.3834V67.5639C213.676 66.5137 213.529 65.6716 213.245 65.0409C212.957 64.4102 212.648 64.0463 212.312 63.9494H221.158V63.9424ZM221.158 88.3116C222.399 88.3116 223.482 87.972 224.402 87.2928C225.32 86.6136 226.09 85.7125 226.71 84.5898C227.332 83.4669 227.796 82.1916 228.109 80.7604C228.421 79.329 228.573 77.8737 228.573 76.3938C228.573 74.9141 228.418 73.4725 228.109 72.062C227.8 70.655 227.339 69.3971 226.731 68.2881C226.122 67.1792 225.352 66.2886 224.421 65.6233C223.489 64.9543 222.403 64.6216 221.161 64.6216H217.045V88.3116H221.161H221.158Z" fill="white"/>
<defs>
<linearGradient id="paint0_linear_235_32" x1="2.2214" y1="12.4355" x2="91.7196" y2="81.328" gradientUnits="userSpaceOnUse">
<stop stop-color="#92643D"/>
<stop offset="0.05" stop-color="#986A42"/>
<stop offset="0.13" stop-color="#A97D51"/>
<stop offset="0.23" stop-color="#C59C6A"/>
<stop offset="0.33" stop-color="#EEC98D"/>
<stop offset="0.52" stop-color="#FFDFB2"/>
<stop offset="0.66" stop-color="#F1CA90"/>
<stop offset="1" stop-color="#92643D"/>
</linearGradient>
<linearGradient id="paint1_linear_235_32" x1="68.8611" y1="16.9157" x2="53.5041" y2="44.4757" gradientUnits="userSpaceOnUse">
<stop stop-color="#FDEA86"/>
<stop offset="0.45" stop-color="#FFE45A"/>
<stop offset="1" stop-color="#B27A2B"/>
</linearGradient>
<linearGradient id="paint2_linear_235_32" x1="62.3484" y1="47.7313" x2="60.3183" y2="51.3747" gradientUnits="userSpaceOnUse">
<stop stop-color="#ECC68B"/>
<stop offset="0.45" stop-color="#CBA366"/>
<stop offset="1" stop-color="#92643D"/>
</linearGradient>
<linearGradient id="paint3_linear_235_32" x1="17.8962" y1="59.7567" x2="72.2573" y2="79.8295" gradientUnits="userSpaceOnUse">
<stop stop-color="#B28A4D"/>
<stop offset="0.11" stop-color="#B89053"/>
<stop offset="0.28" stop-color="#CAA366"/>
<stop offset="0.33" stop-color="#D3AC6F"/>
<stop offset="0.52" stop-color="#F6D889"/>
<stop offset="0.66" stop-color="#D8B278"/>
<stop offset="1" stop-color="#92643D"/>
</linearGradient>
<linearGradient id="paint4_linear_235_32" x1="33.8074" y1="62.6363" x2="51.9713" y2="58.8225" gradientUnits="userSpaceOnUse">
<stop stop-color="#92643D"/>
<stop offset="0.17" stop-color="#B48A5A"/>
<stop offset="0.32" stop-color="#D8B278"/>
<stop offset="0.81" stop-color="#FFDFB2"/>
</linearGradient>
<linearGradient id="paint5_linear_235_32" x1="57.3686" y1="20.302" x2="48.601" y2="36.6711" gradientUnits="userSpaceOnUse">
<stop stop-color="#92643D"/>
<stop offset="0.07" stop-color="#986A41"/>
<stop offset="0.18" stop-color="#A97D4E"/>
<stop offset="0.3" stop-color="#C59C63"/>
<stop offset="0.33" stop-color="#CFA76B"/>
<stop offset="0.52" stop-color="#F4D196"/>
<stop offset="0.66" stop-color="#D3AC6F"/>
<stop offset="1" stop-color="#92643D"/>
</linearGradient>
<linearGradient id="paint6_linear_235_32" x1="37.9027" y1="66.261" x2="22.6456" y2="24.1554" gradientUnits="userSpaceOnUse">
<stop stop-color="#B27A2B"/>
<stop offset="0.07" stop-color="#B57E31"/>
<stop offset="0.16" stop-color="#BE8C44"/>
<stop offset="0.28" stop-color="#CDA363"/>
<stop offset="0.33" stop-color="#D6B075"/>
<stop offset="0.52" stop-color="#FFDFB2"/>
<stop offset="0.66" stop-color="#D7B075"/>
<stop offset="1" stop-color="#92643D"/>
</linearGradient>
<linearGradient id="paint7_linear_235_32" x1="36.5469" y1="54.0414" x2="56.0233" y2="101.067" gradientUnits="userSpaceOnUse">
<stop stop-color="#92643D"/>
<stop offset="0.08" stop-color="#986A41"/>
<stop offset="0.2" stop-color="#A97D4C"/>
<stop offset="0.33" stop-color="#C39A5E"/>
<stop offset="0.52" stop-color="#F3CF94"/>
<stop offset="0.66" stop-color="#C8A165"/>
<stop offset="1" stop-color="#92643D"/>
</linearGradient>
</defs>
</svg>
